<svg width="45" height="46" viewBox="0 0 45 46" fill="none" xmlns="http://www.w3.org/2000/svg">
<path d="M11.0005 4.5959C3.52988 4.87223 -2.25231 14.0317 4.87545 31.5021C2.7195 21.4345 11.0983 2.75447 15.0005 32.5646C15.3197 32.0813 13.0317 38.5127 13.0317 38.5646C13.0317 40.2102 17.2669 41.5334 22.5005 41.5334C27.734 41.5334 31.9692 40.2102 31.9692 38.5646C31.9692 38.5127 29.6506 32.0349 30.0005 32.5646C33.9026 2.75447 42.2814 21.4345 40.1255 31.5021C50.9868 4.88058 31.8257 -2.43361 22.5005 11.5646C19.2949 6.75275 14.9136 4.45116 11.0005 4.5959Z" fill="white" stroke="black" stroke-width="1.5" stroke-linecap="round" stroke-linejoin="round"/>
<path d="M9.71024 35.4884C9.71024 38.1566 8.29142 40.3196 6.5412 40.3196C4.79099 40.3196 3.37216 38.1566 3.37216 35.4884C3.37216 32.8202 4.79099 30.6571 6.5412 30.6571C8.29142 30.6571 9.71024 32.8202 9.71024 35.4884Z" fill="white" stroke="black" stroke-width="1.5" stroke-linecap="round" stroke-linejoin="round"/>
<path d="M35.2924 35.4884C35.2924 38.1566 36.7112 40.3196 38.4614 40.3196C40.2116 40.3196 41.6305 38.1566 41.6305 35.4884C41.6305 32.8202 40.2116 30.6571 38.4614 30.6571C36.7112 30.6571 35.2924 32.8202 35.2924 35.4884Z" fill="white" stroke="black" stroke-width="1.5" stroke-linecap="round" stroke-linejoin="round"/>
<path d="M15.0005 32.5646C18.0824 27.4257 20.9576 23.4142 22.5005 11.5646" stroke="black" stroke-width="1.5" stroke-linecap="round" stroke-linejoin="round"/>
<path d="M30.0005 32.5646C26.9185 27.4257 24.0434 23.4142 22.5005 11.5646" stroke="black" stroke-width="1.5" stroke-linecap="round" stroke-linejoin="round"/>
<path d="M15.0005 32.5647C20.0005 30.5647 25.0005 30.5802 30.0005 32.5647" stroke="black" stroke-width="1.5" stroke-linecap="round" stroke-linejoin="round"/>
</svg>
