<svg width="1397" height="831" viewBox="0 0 1397 831" fill="none" xmlns="http://www.w3.org/2000/svg">
<rect x="415.135" y="2.70797" width="372.831" height="503.947" rx="18.5" transform="rotate(2.7711 415.135 2.70797)" fill="#2C2F40" stroke="#1D1F2C" stroke-width="3"/>
<path d="M522.316 131.999L529.875 157.143L539.78 132.844L549.003 133.29L547.353 167.375L540.307 167.034L540.758 157.717L542.239 141.668L531.809 166.623L526.987 166.39L519.038 140.569L518.963 156.662L518.512 165.979L511.489 165.64L513.139 131.554L522.316 131.999ZM582.273 152.758C582.11 156.113 581.375 159.026 580.066 161.497C578.758 163.968 576.962 165.836 574.68 167.103C572.413 168.369 569.851 168.934 566.995 168.795C564.17 168.659 561.683 167.858 559.532 166.393C557.382 164.928 555.759 162.909 554.663 160.338C553.568 157.751 553.092 154.818 553.235 151.54L553.317 149.854C553.479 146.499 554.223 143.578 555.548 141.092C556.889 138.592 558.693 136.716 560.959 135.465C563.242 134.199 565.803 133.634 568.644 133.772C571.484 133.909 573.971 134.718 576.105 136.198C578.256 137.663 579.87 139.704 580.948 142.322C582.042 144.925 582.508 147.896 582.346 151.236L582.273 152.758ZM575.231 150.868C575.404 147.294 574.896 144.547 573.706 142.628C572.516 140.709 570.735 139.692 568.363 139.577C566.006 139.463 564.143 140.296 562.774 142.076C561.406 143.84 560.629 146.493 560.441 150.035L560.361 151.697C560.193 155.177 560.702 157.908 561.889 159.89C563.075 161.871 564.871 162.92 567.274 163.037C569.631 163.151 571.486 162.317 572.839 160.537C574.193 158.741 574.963 156.072 575.151 152.53L575.231 150.868ZM614.036 136.438L612.95 158.888C612.769 162.618 611.456 165.511 609.01 167.567C606.58 169.624 603.343 170.555 599.301 170.359C595.321 170.167 592.212 168.96 589.973 166.74C587.734 164.52 586.68 161.567 586.812 157.881L587.911 135.174L594.934 135.514L593.845 158.011C593.737 160.242 594.189 161.899 595.2 162.98C596.228 164.047 597.686 164.626 599.574 164.717C603.523 164.908 605.629 162.93 605.892 158.781L606.99 136.097L614.036 136.438ZM645.863 172.144L638.84 171.804L626.254 148.715L625.169 171.142L618.146 170.802L619.795 136.717L626.818 137.057L639.425 160.193L640.513 137.72L647.513 138.058L645.863 172.144ZM678.326 145.252L667.885 144.747L666.511 173.143L659.488 172.803L660.862 144.407L650.562 143.908L650.837 138.219L678.602 139.563L678.326 145.252Z" fill="#F8DC97"/>
<path d="M462.982 305.277L452.272 304.758L449.544 311.314L446.068 311.146L457.067 286.054L460.017 286.197L468.559 312.234L465.1 312.067L462.982 305.277ZM453.425 302.034L462.116 302.454L458.34 290.287L453.425 302.034ZM496.907 304.297C496.768 307.188 495.993 309.485 494.585 311.189C493.177 312.892 491.343 313.689 489.084 313.58C486.778 313.468 484.999 312.649 483.748 311.122L483.305 320.269L480.057 320.112L481.33 293.811L484.297 293.954L484.353 296.069C485.755 294.494 487.632 293.764 489.985 293.878C492.268 293.988 494.029 294.936 495.268 296.72C496.519 298.506 497.07 300.932 496.922 303.998L496.907 304.297ZM493.677 303.771C493.781 301.629 493.406 299.915 492.553 298.63C491.7 297.345 490.478 296.664 488.886 296.587C486.92 296.492 485.403 297.293 484.335 298.989L483.896 308.067C484.783 309.846 486.228 310.784 488.229 310.881C489.786 310.956 491.051 310.402 492.023 309.217C493.008 308.021 493.559 306.205 493.677 303.771ZM512.33 314.353C512.161 313.969 512.041 313.295 511.97 312.329C510.384 313.825 508.544 314.522 506.449 314.42C504.576 314.33 503.062 313.728 501.908 312.617C500.765 311.494 500.233 310.119 500.312 308.492C500.408 306.513 501.231 305.016 502.782 304C504.345 302.973 506.491 302.526 509.218 302.658L512.378 302.811L512.45 301.318C512.505 300.183 512.21 299.265 511.563 298.565C510.917 297.853 509.933 297.465 508.61 297.401C507.451 297.345 506.465 297.591 505.653 298.138C504.84 298.685 504.414 299.375 504.374 300.206L501.108 300.048C501.154 299.099 501.532 298.203 502.241 297.357C502.963 296.5 503.91 295.842 505.082 295.383C506.266 294.924 507.549 294.728 508.93 294.795C511.119 294.901 512.807 295.534 513.994 296.694C515.182 297.843 515.753 299.378 515.707 301.3L515.284 310.043C515.2 311.787 515.355 313.185 515.75 314.237L515.736 314.518L512.33 314.353ZM507.06 311.616C508.078 311.666 509.056 311.449 509.995 310.967C510.933 310.484 511.628 309.831 512.078 309.008L512.267 305.111L509.721 304.987C505.741 304.795 503.695 305.863 503.582 308.192C503.533 309.211 503.834 310.023 504.485 310.629C505.136 311.236 505.994 311.565 507.06 311.616ZM537.197 311.069L541.552 296.726L544.8 296.883L538.35 315.612L535.717 315.485L531.796 300.864L526.604 315.044L523.971 314.916L519.377 295.652L522.608 295.809L525.659 310.211L530.772 296.204L533.388 296.33L537.197 311.069ZM551.191 297.192L551.181 299.585C552.721 297.829 554.661 297.008 557.002 297.121C561.017 297.316 562.933 299.679 562.748 304.21L562.141 316.764L558.893 316.607L559.501 304.035C559.556 302.665 559.289 301.638 558.7 300.952C558.123 300.267 557.185 299.893 555.886 299.83C554.832 299.779 553.894 300.016 553.071 300.539C552.248 301.062 551.592 301.77 551.103 302.661L550.447 316.198L547.199 316.041L548.119 297.043L551.191 297.192ZM592.456 308.921C592.316 311.813 591.542 314.11 590.134 315.813C588.725 317.517 586.892 318.314 584.633 318.205C582.327 318.093 580.548 317.274 579.296 315.746L578.853 324.894L575.605 324.737L576.878 298.435L579.845 298.579L579.901 300.694C581.303 299.119 583.181 298.389 585.533 298.502C587.816 298.613 589.577 299.56 590.816 301.345C592.067 303.13 592.619 305.556 592.47 308.623L592.456 308.921ZM589.225 308.396C589.329 306.254 588.954 304.54 588.102 303.255C587.249 301.97 586.026 301.289 584.434 301.212C582.468 301.117 580.951 301.918 579.883 303.614L579.444 312.691C580.331 314.471 581.776 315.409 583.778 315.506C585.334 315.581 586.599 315.026 587.572 313.842C588.556 312.646 589.108 310.83 589.225 308.396ZM606.111 302.772C605.623 302.666 605.093 302.599 604.519 302.572C602.389 302.468 600.899 303.306 600.051 305.083L599.398 318.567L596.15 318.41L597.069 299.413L600.23 299.566L600.176 301.763C601.323 300.117 602.874 299.342 604.829 299.436C605.461 299.467 605.937 299.572 606.257 299.752L606.111 302.772ZM607.592 309.267C607.682 307.406 608.125 305.75 608.923 304.298C609.732 302.847 610.806 301.75 612.145 301.005C613.495 300.261 615.007 299.929 616.681 300.01C619.267 300.135 621.313 301.132 622.819 303C624.335 304.868 625.022 307.289 624.878 310.262L624.867 310.49C624.778 312.34 624.34 313.985 623.555 315.425C622.782 316.854 621.714 317.946 620.351 318.702C619.001 319.457 617.471 319.794 615.762 319.711C613.187 319.587 611.141 318.59 609.624 316.722C608.119 314.854 607.438 312.445 607.58 309.495L607.592 309.267ZM610.839 309.811C610.737 311.918 611.14 313.633 612.05 314.956C612.972 316.279 614.252 316.981 615.89 317.06C617.541 317.14 618.883 316.56 619.917 315.319C620.951 314.067 621.525 312.276 621.638 309.947C621.738 307.863 621.323 306.154 620.39 304.818C619.47 303.471 618.19 302.758 616.551 302.679C614.948 302.601 613.623 303.176 612.579 304.405C611.534 305.633 610.954 307.435 610.839 309.811ZM632.465 301.126L632.451 303.237C633.923 301.666 635.842 300.937 638.206 301.052C640.863 301.18 642.622 302.286 643.484 304.369C644.16 303.487 645.015 302.789 646.049 302.276C647.094 301.764 648.308 301.541 649.689 301.608C653.856 301.809 655.868 304.118 655.724 308.535L655.108 321.264L651.86 321.107L652.467 308.57C652.532 307.213 652.271 306.185 651.683 305.488C651.096 304.779 650.07 304.389 648.607 304.318C647.402 304.26 646.383 304.574 645.552 305.262C644.722 305.937 644.213 306.88 644.025 308.091L643.415 320.698L640.149 320.54L640.752 308.091C640.885 305.329 639.6 303.882 636.896 303.751C634.766 303.648 633.265 304.485 632.393 306.261L631.721 320.132L628.473 319.975L629.393 300.977L632.465 301.126ZM659.632 311.786C659.722 309.925 660.166 308.268 660.964 306.817C661.773 305.366 662.847 304.268 664.185 303.524C665.535 302.779 667.047 302.448 668.721 302.529C671.308 302.654 673.354 303.651 674.859 305.519C676.376 307.387 677.063 309.808 676.919 312.781L676.908 313.009C676.818 314.859 676.381 316.503 675.595 317.944C674.822 319.373 673.754 320.465 672.392 321.22C671.041 321.976 669.512 322.313 667.803 322.23C665.228 322.106 663.182 321.109 661.665 319.24C660.16 317.373 659.478 314.964 659.621 312.014L659.632 311.786ZM662.879 312.33C662.777 314.437 663.181 316.152 664.091 317.475C665.012 318.798 666.292 319.5 667.931 319.579C669.582 319.659 670.924 319.079 671.957 317.838C672.992 316.586 673.565 314.795 673.678 312.466C673.779 310.382 673.363 308.673 672.431 307.337C671.51 305.99 670.231 305.277 668.592 305.198C666.988 305.12 665.664 305.695 664.619 306.924C663.574 308.152 662.994 309.954 662.879 312.33ZM686.081 299.11L685.858 303.71L689.405 303.882L689.283 306.393L685.736 306.221L685.166 318.002C685.129 318.763 685.26 319.344 685.557 319.746C685.855 320.136 686.384 320.349 687.145 320.386C687.52 320.404 688.038 320.359 688.7 320.25L688.573 322.884C687.707 323.076 686.87 323.153 686.063 323.114C684.611 323.044 683.538 322.552 682.843 321.638C682.148 320.725 681.84 319.46 681.918 317.845L682.488 306.064L679.029 305.896L679.151 303.386L682.61 303.553L682.832 298.953L686.081 299.11ZM700.161 323.796C697.586 323.672 695.532 322.728 693.998 320.964C692.465 319.188 691.767 316.884 691.904 314.052L691.933 313.455C692.024 311.57 692.462 309.908 693.248 308.468C694.046 307.016 695.108 305.906 696.436 305.137C697.776 304.358 699.201 304.004 700.711 304.077C703.181 304.197 705.061 305.103 706.352 306.797C707.643 308.49 708.215 310.852 708.068 313.884L708.002 315.236L695.133 314.613C695.089 316.488 695.56 318.03 696.545 319.239C697.543 320.437 698.85 321.076 700.465 321.154C701.612 321.209 702.595 321.022 703.414 320.592C704.232 320.163 704.959 319.576 705.593 318.833L707.502 320.474C705.792 322.843 703.345 323.951 700.161 323.796ZM700.582 306.746C699.271 306.683 698.147 307.109 697.211 308.026C696.276 308.931 695.661 310.239 695.367 311.949L704.883 312.41L704.895 312.164C704.882 310.509 704.499 309.212 703.746 308.272C702.994 307.32 701.94 306.812 700.582 306.746ZM722.668 319.483C722.71 318.605 722.409 317.91 721.766 317.398C721.134 316.875 720.001 316.397 718.368 315.966C716.746 315.536 715.461 315.051 714.514 314.513C713.578 313.975 712.892 313.355 712.457 312.653C712.033 311.952 711.844 311.134 711.889 310.197C711.965 308.64 712.684 307.355 714.047 306.342C715.422 305.329 717.133 304.872 719.182 304.971C721.335 305.076 723.052 305.716 724.333 306.893C725.625 308.07 726.23 309.524 726.146 311.257L722.88 311.099C722.923 310.209 722.58 309.424 721.85 308.743C721.132 308.063 720.2 307.696 719.052 307.64C717.87 307.583 716.933 307.796 716.241 308.278C715.549 308.761 715.183 309.418 715.142 310.249C715.104 311.033 715.386 311.639 715.987 312.067C716.588 312.495 717.688 312.93 719.285 313.371C720.895 313.813 722.191 314.309 723.173 314.861C724.155 315.413 724.869 316.058 725.314 316.795C725.772 317.521 725.976 318.394 725.927 319.412C725.845 321.109 725.1 322.44 723.692 323.404C722.285 324.357 720.499 324.781 718.333 324.676C716.812 324.602 715.479 324.268 714.334 323.673C713.19 323.078 712.307 322.284 711.687 321.292C711.078 320.289 710.801 319.225 710.855 318.102L714.104 318.259C714.109 319.35 714.501 320.237 715.277 320.92C716.066 321.592 717.127 321.96 718.462 322.025C719.691 322.084 720.686 321.886 721.447 321.43C722.221 320.963 722.627 320.314 722.668 319.483ZM487.492 355.2L484.244 355.043L485.163 336.045L488.412 336.203L487.492 355.2ZM485.144 330.994C485.17 330.467 485.349 330.03 485.683 329.682C486.028 329.335 486.517 329.177 487.149 329.208C487.781 329.238 488.252 329.443 488.562 329.822C488.872 330.2 489.015 330.653 488.989 331.18C488.964 331.706 488.779 332.137 488.434 332.473C488.089 332.808 487.601 332.96 486.969 332.93C486.336 332.899 485.865 332.7 485.554 332.333C485.255 331.967 485.119 331.52 485.144 330.994ZM496.699 336.604L496.689 338.997C498.228 337.241 500.169 336.42 502.51 336.533C506.525 336.727 508.44 339.09 508.256 343.622L507.648 356.175L504.4 356.018L505.009 343.447C505.063 342.077 504.796 341.049 504.207 340.364C503.631 339.679 502.692 339.305 501.393 339.242C500.34 339.191 499.401 339.427 498.578 339.95C497.755 340.474 497.099 341.181 496.61 342.073L495.955 355.61L492.707 355.452L493.626 336.455L496.699 336.604ZM518.096 333.029L517.873 337.629L521.42 337.8L521.298 340.311L517.752 340.139L517.181 351.92C517.145 352.681 517.275 353.262 517.572 353.664C517.87 354.054 518.4 354.267 519.16 354.304C519.535 354.322 520.053 354.277 520.716 354.168L520.588 356.802C519.722 356.995 518.886 357.071 518.078 357.032C516.627 356.962 515.553 356.47 514.858 355.557C514.164 354.643 513.855 353.379 513.933 351.763L514.504 339.982L511.045 339.815L511.166 337.304L514.625 337.471L514.848 332.871L518.096 333.029ZM523.567 347.249C523.657 345.388 524.101 343.732 524.899 342.28C525.708 340.829 526.782 339.732 528.12 338.987C529.47 338.243 530.982 337.911 532.656 337.992C535.243 338.117 537.289 339.114 538.794 340.982C540.311 342.85 540.998 345.271 540.854 348.244L540.843 348.472C540.753 350.322 540.316 351.967 539.53 353.407C538.757 354.836 537.689 355.928 536.327 356.684C534.976 357.44 533.447 357.776 531.738 357.693C529.163 357.569 527.117 356.572 525.6 354.704C524.095 352.836 523.413 350.427 523.556 347.477L523.567 347.249ZM526.814 347.793C526.712 349.9 527.116 351.615 528.026 352.938C528.947 354.262 530.227 354.963 531.866 355.042C533.516 355.122 534.859 354.542 535.892 353.301C536.927 352.049 537.5 350.258 537.613 347.929C537.714 345.845 537.298 344.136 536.366 342.8C535.445 341.453 534.166 340.74 532.527 340.661C530.923 340.583 529.599 341.159 528.554 342.387C527.509 343.615 526.929 345.417 526.814 347.793ZM565.114 358.957C564.945 358.573 564.825 357.899 564.755 356.933C563.169 358.429 561.328 359.126 559.233 359.024C557.36 358.934 555.846 358.332 554.692 357.221C553.549 356.098 553.018 354.723 553.096 353.096C553.192 351.118 554.015 349.62 555.566 348.604C557.13 347.577 559.275 347.13 562.002 347.262L565.162 347.415L565.235 345.922C565.29 344.787 564.994 343.869 564.347 343.169C563.701 342.457 562.717 342.069 561.394 342.005C560.235 341.949 559.25 342.195 558.437 342.742C557.625 343.289 557.198 343.979 557.158 344.81L553.892 344.652C553.938 343.704 554.316 342.807 555.026 341.961C555.748 341.104 556.695 340.446 557.867 339.987C559.05 339.528 560.333 339.332 561.714 339.399C563.903 339.505 565.591 340.138 566.778 341.298C567.966 342.447 568.537 343.982 568.491 345.904L568.068 354.647C567.984 356.392 568.139 357.789 568.534 358.841L568.52 359.122L565.114 358.957ZM559.844 356.22C560.862 356.27 561.841 356.053 562.779 355.571C563.718 355.088 564.412 354.435 564.862 353.612L565.051 349.715L562.505 349.591C558.526 349.399 556.479 350.467 556.367 352.796C556.317 353.815 556.618 354.627 557.269 355.234C557.92 355.84 558.779 356.169 559.844 356.22ZM587.592 351.228L585.453 353.254L585.13 359.926L581.882 359.769L583.187 332.8L586.435 332.957L585.646 349.268L587.485 347.263L593.704 341.299L597.655 341.49L589.879 349.068L597.596 360.529L593.786 360.345L587.592 351.228ZM604.081 341.801L604.071 344.194C605.61 342.438 607.551 341.617 609.892 341.731C613.907 341.925 615.822 344.288 615.638 348.819L615.03 361.373L611.782 361.216L612.391 348.645C612.445 347.275 612.178 346.247 611.59 345.561C611.013 344.876 610.075 344.502 608.775 344.44C607.722 344.389 606.784 344.625 605.96 345.148C605.137 345.671 604.481 346.379 603.992 347.27L603.337 360.807L600.089 360.65L601.008 341.653L604.081 341.801ZM623.458 361.781L620.21 361.624L621.129 342.626L624.377 342.784L623.458 361.781ZM621.11 337.575C621.135 337.048 621.315 336.611 621.648 336.263C621.994 335.916 622.482 335.758 623.115 335.789C623.747 335.819 624.218 336.024 624.528 336.403C624.838 336.781 624.98 337.234 624.955 337.761C624.929 338.288 624.744 338.719 624.4 339.054C624.055 339.389 623.566 339.541 622.934 339.511C622.302 339.48 621.831 339.281 621.52 338.914C621.221 338.548 621.084 338.101 621.11 337.575ZM628.367 352.339C628.511 349.378 629.309 347.058 630.763 345.381C632.218 343.691 634.075 342.901 636.334 343.01C638.651 343.123 640.42 344.029 641.64 345.731L641.9 343.632L644.867 343.775L643.97 362.316C643.851 364.774 643.025 366.676 641.494 368.022C639.974 369.368 637.985 369.981 635.527 369.862C634.157 369.796 632.831 369.438 631.548 368.79C630.266 368.141 629.304 367.291 628.663 366.239L630.442 364.372C631.752 366.16 633.413 367.102 635.427 367.2C637.007 367.276 638.257 366.891 639.178 366.044C640.111 365.197 640.616 363.967 640.695 362.351L640.774 360.718C639.402 362.154 637.592 362.817 635.345 362.708C633.121 362.601 631.362 361.618 630.067 359.76C628.784 357.903 628.218 355.429 628.367 352.339ZM631.615 352.866C631.512 355.008 631.869 356.715 632.687 357.986C633.506 359.246 634.706 359.914 636.286 359.991C638.334 360.09 639.884 359.232 640.933 357.418L641.353 348.744C640.446 346.882 638.998 345.902 637.008 345.806C635.428 345.73 634.163 346.284 633.214 347.47C632.265 348.656 631.732 350.455 631.615 352.866ZM652.92 346.471C654.445 344.773 656.361 343.98 658.667 344.091C662.682 344.286 664.597 346.649 664.413 351.18L663.805 363.734L660.557 363.577L661.166 351.005C661.22 349.635 660.953 348.608 660.364 347.922C659.788 347.237 658.849 346.863 657.55 346.8C656.497 346.749 655.558 346.986 654.735 347.509C653.912 348.032 653.256 348.74 652.767 349.631L652.112 363.168L648.864 363.011L650.169 336.042L653.417 336.199L652.92 346.471ZM674.218 340.585L673.995 345.185L677.542 345.357L677.42 347.868L673.874 347.696L673.303 359.477C673.267 360.238 673.397 360.819 673.694 361.221C673.992 361.611 674.521 361.824 675.282 361.861C675.657 361.879 676.175 361.834 676.838 361.725L676.71 364.359C675.844 364.551 675.008 364.628 674.2 364.589C672.748 364.519 671.675 364.027 670.98 363.113C670.285 362.2 669.977 360.935 670.055 359.32L670.625 347.539L667.167 347.371L667.288 344.861L670.747 345.028L670.97 340.428L674.218 340.585ZM680.585 362.839C680.612 362.277 680.799 361.817 681.145 361.458C681.502 361.1 682.014 360.937 682.682 360.969C683.349 361.002 683.843 361.213 684.164 361.604C684.497 361.996 684.65 362.473 684.623 363.034C684.597 363.573 684.4 364.015 684.031 364.361C683.674 364.707 683.162 364.864 682.495 364.832C681.828 364.8 681.333 364.594 681.011 364.215C680.701 363.836 680.559 363.377 680.585 362.839Z" fill="#F8DC97"/>
<path d="M441.982 51.6802L438.716 51.5221L439.764 29.8736L433.098 31.962L433.241 29.0123L442.716 25.9688L443.225 25.9934L441.982 51.6802ZM468.056 42.0134C467.872 45.8175 467.085 48.6129 465.696 50.3994C464.308 52.1859 462.232 53.0123 459.47 52.8786C456.742 52.7466 454.767 51.7476 453.543 49.8815C452.32 48.0038 451.772 45.2671 451.899 41.6713L452.109 37.3346C452.291 33.5773 453.076 30.8171 454.463 29.054C455.851 27.2909 457.932 26.4765 460.706 26.6108C463.456 26.7439 465.439 27.7256 466.652 29.556C467.867 31.3746 468.402 34.1225 468.26 37.7996L468.056 42.0134ZM465.022 37.4141C465.156 34.6634 464.866 32.6432 464.154 31.3533C463.443 30.0518 462.25 29.3605 460.577 29.2795C458.914 29.1991 457.673 29.7666 456.851 30.9823C456.03 32.1979 455.544 34.1044 455.395 36.7018L455.144 41.8988C455.01 44.6612 455.309 46.723 456.041 48.0842C456.785 49.4342 457.971 50.1486 459.598 50.2274C461.201 50.305 462.42 49.7421 463.252 48.5388C464.096 47.336 464.601 45.4011 464.765 42.7341L465.022 37.4141Z" fill="#F8DC97"/>
<rect x="9.21631" y="299.453" width="372.831" height="503.947" rx="18.5" transform="rotate(-15.2005 9.21631 299.453)" fill="#2C2F40" stroke="#1D1F2C" stroke-width="3"/>
<path d="M160.071 414.993L148.174 418.225L147.756 425.625L140.541 427.585L143.852 391.324L150.14 389.615L171.414 419.197L164.199 421.157L160.071 414.993ZM148.513 412.231L156.746 409.995L149.258 398.793L148.513 412.231ZM169.669 406.338C168.632 402.523 168.659 399.253 169.748 396.528C170.853 393.8 172.89 392.032 175.86 391.225C178.243 390.577 180.452 390.932 182.489 392.289L179.097 379.805L185.656 378.022L195.095 412.763L189.192 414.367L188.168 411.852C187.093 414.33 185.273 415.917 182.71 416.614C179.83 417.396 177.208 416.894 174.845 415.108C172.492 413.302 170.767 410.379 169.669 406.338ZM176.334 405.037C176.957 407.329 177.834 408.977 178.965 409.981C180.096 410.985 181.423 411.28 182.946 410.866C184.966 410.317 186.16 409.078 186.526 407.149L183.902 397.492C182.625 396.009 180.984 395.54 178.978 396.085C175.827 396.941 174.946 399.925 176.334 405.037ZM207.152 400.914L207.218 383.19L214.049 381.334L212.442 408.05L206.2 409.746L191.295 387.517L198.126 385.661L207.152 400.914ZM237.412 401.265C236.951 400.759 236.533 400.087 236.16 399.249C235.056 401.444 233.238 402.885 230.705 403.573C228.307 404.225 226.128 404.072 224.168 403.115C222.223 402.154 220.964 400.618 220.39 398.507C219.686 395.913 220.102 393.663 221.64 391.755C223.193 389.844 225.785 388.387 229.415 387.384L232.423 386.567L232.042 385.165C231.734 384.034 231.195 383.209 230.422 382.69C229.665 382.167 228.66 382.076 227.409 382.416C226.308 382.715 225.513 383.215 225.023 383.914C224.548 384.61 224.436 385.418 224.686 386.338L218.149 388.114C217.764 386.696 217.845 385.266 218.392 383.822C218.939 382.378 219.919 381.099 221.333 379.987C222.743 378.859 224.443 378.024 226.433 377.484C229.449 376.664 232.046 376.776 234.224 377.82C236.413 378.844 237.88 380.729 238.625 383.473L241.508 394.081C242.154 396.399 242.955 398.067 243.912 399.086L244.016 399.471L237.412 401.265ZM230.771 398.188C231.736 397.926 232.569 397.473 233.268 396.829C233.964 396.171 234.409 395.426 234.604 394.596L233.461 390.389L231.019 391.053C227.747 391.942 226.312 393.546 226.716 395.865L226.798 396.256C227.019 397.07 227.488 397.663 228.204 398.035C228.92 398.407 229.776 398.458 230.771 398.188ZM247.432 372.264L248.404 375.036C249.559 372.374 251.606 370.644 254.547 369.845C257.14 369.14 259.277 369.378 260.957 370.556C262.638 371.735 263.905 373.836 264.758 376.858L269.054 392.668L262.518 394.444L258.265 378.793C257.888 377.405 257.314 376.485 256.543 376.03C255.768 375.561 254.679 375.517 253.277 375.898C251.437 376.397 250.271 377.556 249.777 379.374L254.466 396.632L247.929 398.408L241.28 373.935L247.432 372.264ZM282.899 383.733C284.105 383.405 284.995 382.807 285.569 381.939C286.142 381.071 286.295 380.082 286.026 378.973L292.155 377.308C292.591 378.971 292.552 380.616 292.039 382.245C291.523 383.859 290.592 385.262 289.248 386.453C287.915 387.624 286.313 388.464 284.444 388.972C280.946 389.923 277.885 389.564 275.262 387.897C272.636 386.214 270.79 383.413 269.724 379.492L269.608 379.062C268.583 375.293 268.769 372.012 270.164 369.221C271.559 366.429 274.005 364.558 277.503 363.608C280.564 362.776 283.252 362.985 285.567 364.234C287.893 365.464 289.464 367.523 290.281 370.41L284.151 372.075C283.777 370.816 283.107 369.898 282.14 369.318C281.169 368.724 280.065 368.595 278.828 368.931C277.305 369.345 276.304 370.216 275.823 371.545C275.353 372.854 275.456 374.753 276.132 377.241L276.316 377.92C277 380.438 277.876 382.143 278.944 383.035C280.013 383.926 281.331 384.159 282.899 383.733ZM309.572 382.145C305.983 383.12 302.759 382.814 299.899 381.227C297.054 379.636 295.134 377.009 294.138 373.344L293.966 372.711C293.299 370.253 293.177 367.93 293.603 365.742C294.024 363.539 294.961 361.682 296.412 360.17C297.874 358.639 299.721 357.571 301.953 356.965C305.3 356.055 308.218 356.396 310.707 357.986C313.21 359.573 314.989 362.304 316.042 366.179L316.767 368.848L301.183 373.082C301.829 374.623 302.81 375.732 304.128 376.411C305.461 377.085 306.941 377.201 308.57 376.758C311.088 376.074 312.808 374.627 313.729 372.418L317.918 375.141C317.315 376.795 316.283 378.241 314.822 379.48C313.358 380.703 311.607 381.592 309.572 382.145ZM303.368 362.263C302.072 362.616 301.135 363.34 300.558 364.435C299.997 365.527 299.824 366.918 300.041 368.608L309.133 366.137L308.991 365.617C308.568 364.178 307.873 363.169 306.906 362.589C305.935 361.995 304.756 361.886 303.368 362.263Z" fill="#F8DC97"/>
<path d="M158.241 550.137L171.791 568.096L174.39 545.75L178.614 544.602L185.324 569.3L182.068 570.185L179.454 560.567L176.939 550.103L174.264 572.306L171.771 572.983L158.259 555.233L161.388 565.476L164.002 575.094L160.745 575.979L154.034 551.281L158.241 550.137ZM187.212 558.751C186.724 556.953 186.635 555.24 186.946 553.614C187.268 551.984 187.951 550.608 188.994 549.487C190.049 548.362 191.384 547.581 193.002 547.141C195.501 546.462 197.755 546.779 199.763 548.091C201.782 549.4 203.182 551.491 203.962 554.364L204.022 554.584C204.508 556.371 204.599 558.071 204.297 559.683C204.002 561.281 203.323 562.649 202.261 563.788C201.209 564.924 199.858 565.716 198.207 566.165C195.719 566.841 193.465 566.524 191.446 565.215C189.438 563.902 188.046 561.821 187.272 558.971L187.212 558.751ZM190.469 558.267C191.022 560.302 191.935 561.809 193.209 562.787C194.494 563.761 195.928 564.033 197.511 563.603C199.105 563.17 200.203 562.204 200.804 560.705C201.401 559.194 201.394 557.314 200.783 555.064C200.236 553.051 199.313 551.553 198.014 550.57C196.723 549.573 195.285 549.289 193.702 549.72C192.153 550.141 191.071 551.096 190.456 552.587C189.841 554.078 189.845 555.971 190.469 558.267ZM215.024 556.659L215.74 541.327L218.946 540.456L217.351 560.599L214.959 561.249L203.323 544.701L206.529 543.83L215.024 556.659ZM234.423 556.324C231.935 557 229.69 556.736 227.687 555.532C225.68 554.316 224.306 552.34 223.562 549.603L223.405 549.026C222.911 547.206 222.815 545.489 223.117 543.877C223.428 542.25 224.097 540.866 225.122 539.725C226.156 538.57 227.403 537.794 228.862 537.398C231.248 536.749 233.316 537.032 235.066 538.244C236.816 539.456 238.089 541.527 238.885 544.456L239.24 545.762L226.806 549.141C227.343 550.938 228.267 552.259 229.578 553.105C230.896 553.937 232.336 554.141 233.897 553.717C235.005 553.416 235.882 552.935 236.528 552.273C237.174 551.612 237.684 550.83 238.058 549.927L240.381 550.899C239.485 553.68 237.499 555.489 234.423 556.324ZM229.562 539.976C228.296 540.32 227.359 541.073 226.751 542.234C226.141 543.383 225.959 544.817 226.207 546.535L235.401 544.036L235.337 543.799C234.813 542.229 234.049 541.113 233.043 540.451C232.034 539.778 230.874 539.62 229.562 539.976ZM269.614 546.399L253.431 550.796L252.818 548.539L258.787 536.717C259.663 534.937 260.217 533.535 260.45 532.513C260.69 531.476 260.68 530.477 260.419 529.516C260.068 528.227 259.391 527.275 258.386 526.662C257.382 526.048 256.229 525.918 254.929 526.272C253.368 526.696 252.274 527.473 251.646 528.603C251.026 529.718 250.931 531.068 251.361 532.651L248.223 533.503C247.605 531.23 247.836 529.195 248.913 527.396C250.003 525.594 251.774 524.36 254.228 523.693C256.524 523.069 258.503 523.181 260.166 524.029C261.827 524.865 262.929 526.284 263.472 528.285C264.133 530.717 263.37 534.033 261.184 538.233L256.518 547.206L268.918 543.837L269.614 546.399ZM294.945 529.88C295.704 532.673 295.676 535.098 294.862 537.152C294.048 539.207 292.55 540.531 290.368 541.124C288.14 541.729 286.195 541.499 284.533 540.433L286.934 549.27L283.796 550.123L276.892 524.712L279.758 523.933L280.464 525.927C281.312 523.997 282.872 522.723 285.145 522.105C287.351 521.506 289.318 521.864 291.048 523.179C292.788 524.491 294.061 526.629 294.866 529.592L294.945 529.88ZM291.71 530.377C291.148 528.307 290.262 526.793 289.055 525.834C287.847 524.875 286.474 524.604 284.936 525.022C283.036 525.538 281.84 526.768 281.348 528.711L283.731 537.481C285.124 538.9 286.788 539.346 288.722 538.821C290.226 538.412 291.257 537.494 291.817 536.067C292.385 534.626 292.349 532.729 291.71 530.377ZM312.718 534.687C312.438 534.374 312.116 533.77 311.751 532.873C310.704 534.785 309.168 536.016 307.144 536.566C305.335 537.057 303.709 536.953 302.268 536.251C300.835 535.536 299.905 534.392 299.478 532.82C298.958 530.909 299.28 529.231 300.441 527.786C301.611 526.326 303.514 525.239 306.149 524.523L309.202 523.693L308.81 522.251C308.512 521.154 307.948 520.373 307.117 519.906C306.283 519.428 305.227 519.363 303.949 519.71C302.829 520.015 301.967 520.552 301.363 521.324C300.759 522.095 300.566 522.882 300.784 523.685L297.629 524.542C297.38 523.626 297.463 522.657 297.877 521.633C298.3 520.596 298.997 519.677 299.97 518.879C300.955 518.077 302.114 517.495 303.449 517.132C305.563 516.558 307.365 516.639 308.852 517.376C310.337 518.102 311.353 519.387 311.903 521.229L314.198 529.677C314.656 531.362 315.235 532.643 315.935 533.522L316.008 533.793L312.718 534.687ZM306.86 533.71C307.844 533.443 308.708 532.935 309.452 532.187C310.195 531.438 310.655 530.603 310.829 529.681L309.806 525.915L307.346 526.584C303.501 527.628 301.885 529.276 302.496 531.526C302.763 532.51 303.3 533.19 304.107 533.566C304.913 533.942 305.831 533.99 306.86 533.71ZM335.359 523.891L335.075 508.903L338.213 508.051L337.857 527.857L335.312 528.548L327.072 515.85L326.509 530.94L323.964 531.631L313.651 514.725L316.772 513.877L324.118 526.635L324.66 511.733L327.187 511.047L335.359 523.891ZM344.388 506.373L345.117 508.652C346.04 506.507 347.632 505.127 349.894 504.513C353.773 503.459 356.324 505.116 357.547 509.483L360.842 521.612L357.704 522.464L354.404 510.319C354.033 508.999 353.462 508.103 352.69 507.633C351.93 507.159 350.923 507.093 349.667 507.434C348.65 507.711 347.83 508.225 347.208 508.977C346.587 509.728 346.181 510.604 345.991 511.603L349.545 524.681L346.406 525.534L341.419 507.18L344.388 506.373ZM374.939 512.554C374.708 511.705 374.208 511.137 373.437 510.849C372.675 510.546 371.45 510.441 369.764 510.535C368.088 510.626 366.717 510.562 365.649 510.342C364.593 510.119 363.749 509.741 363.119 509.208C362.499 508.672 362.067 507.951 361.821 507.047C361.412 505.542 361.7 504.098 362.684 502.714C363.679 501.326 365.166 500.363 367.145 499.826C369.226 499.26 371.057 499.34 372.638 500.064C374.23 500.785 375.254 501.982 375.709 503.656L372.554 504.513C372.32 503.653 371.751 503.013 370.847 502.59C369.955 502.165 368.954 502.103 367.846 502.404C366.704 502.714 365.878 503.206 365.368 503.879C364.859 504.551 364.713 505.289 364.932 506.092C365.137 506.85 365.592 507.339 366.296 507.561C367 507.783 368.18 507.857 369.836 507.783C371.503 507.707 372.889 507.78 373.993 508.002C375.098 508.224 375.976 508.617 376.627 509.18C377.286 509.73 377.75 510.497 378.017 511.48C378.463 513.12 378.165 514.616 377.123 515.968C376.079 517.308 374.51 518.262 372.418 518.831C370.948 519.23 369.577 519.323 368.305 519.11C367.032 518.897 365.948 518.415 365.052 517.663C364.163 516.896 363.572 515.97 363.277 514.884L366.415 514.032C366.757 515.068 367.403 515.791 368.352 516.201C369.31 516.597 370.433 516.619 371.722 516.269C372.91 515.947 373.795 515.451 374.379 514.782C374.97 514.099 375.157 513.357 374.939 512.554ZM186.82 612.417L182.493 596.488L179.592 597.276L178.933 594.851L181.834 594.063L181.322 592.18C180.787 590.212 180.9 588.548 181.66 587.188C182.42 585.828 183.761 584.887 185.683 584.364C186.407 584.168 187.151 584.069 187.916 584.067L188.438 586.658C187.878 586.701 187.299 586.803 186.7 586.966C185.682 587.243 184.977 587.756 184.586 588.506C184.192 589.244 184.145 590.168 184.446 591.276L184.972 593.21L188.89 592.145L189.549 594.571L185.631 595.636L189.959 611.564L186.82 612.417ZM193.984 600.434C193.495 598.636 193.406 596.923 193.717 595.296C194.04 593.667 194.722 592.291 195.766 591.17C196.82 590.045 198.156 589.263 199.773 588.824C202.272 588.145 204.526 588.462 206.534 589.774C208.554 591.083 209.954 593.174 210.734 596.047L210.794 596.267C211.279 598.054 211.371 599.753 211.068 601.366C210.774 602.964 210.095 604.332 209.032 605.471C207.981 606.607 206.629 607.399 204.978 607.847C202.49 608.523 200.237 608.207 198.217 606.897C196.209 605.585 194.818 603.504 194.044 600.654L193.984 600.434ZM197.24 599.95C197.793 601.985 198.707 603.492 199.98 604.469C201.265 605.444 202.699 605.716 204.282 605.286C205.877 604.853 206.975 603.887 207.575 602.388C208.173 600.877 208.166 598.997 207.554 596.747C207.007 594.734 206.084 593.236 204.785 592.253C203.494 591.256 202.057 590.972 200.474 591.402C198.924 591.823 197.842 592.779 197.227 594.27C196.612 595.761 196.617 597.654 197.24 599.95ZM221.817 586.223C221.321 586.272 220.796 586.373 220.242 586.523C218.183 587.082 217.025 588.338 216.766 590.291L220.306 603.319L217.167 604.171L212.181 585.817L215.234 584.988L215.861 587.094C216.445 585.175 217.681 583.958 219.569 583.445C220.18 583.279 220.665 583.233 221.025 583.305L221.817 586.223ZM244.321 592.149L244.037 577.162L247.176 576.309L246.819 596.115L244.275 596.806L236.034 584.109L235.471 599.198L232.926 599.89L222.613 582.983L225.734 582.135L233.081 594.893L233.622 579.991L236.15 579.305L244.321 592.149ZM266.7 590.713C266.421 590.4 266.098 589.796 265.733 588.899C264.686 590.811 263.151 592.042 261.126 592.592C259.317 593.083 257.692 592.979 256.25 592.277C254.817 591.562 253.887 590.418 253.46 588.846C252.941 586.935 253.262 585.257 254.424 583.812C255.594 582.352 257.496 581.264 260.131 580.549L263.184 579.719L262.793 578.277C262.495 577.18 261.93 576.398 261.099 575.932C260.265 575.454 259.209 575.389 257.931 575.736C256.811 576.041 255.95 576.578 255.346 577.35C254.742 578.121 254.549 578.908 254.767 579.711L251.612 580.568C251.363 579.652 251.445 578.683 251.86 577.659C252.282 576.622 252.98 575.703 253.953 574.905C254.937 574.103 256.096 573.521 257.431 573.158C259.546 572.584 261.347 572.665 262.834 573.402C264.319 574.128 265.336 575.412 265.885 577.255L268.18 585.702C268.638 587.387 269.217 588.669 269.917 589.548L269.991 589.819L266.7 590.713ZM260.842 589.736C261.826 589.469 262.69 588.961 263.434 588.212C264.178 587.464 264.637 586.629 264.811 585.707L263.788 581.941L261.329 582.609C257.484 583.654 255.867 585.302 256.478 587.552C256.746 588.536 257.282 589.216 258.089 589.592C258.895 589.968 259.813 590.016 260.842 589.736ZM278.915 570.709C278.419 570.759 277.894 570.859 277.339 571.009C275.281 571.569 274.123 572.825 273.864 574.777L277.404 587.805L274.265 588.658L269.279 570.303L272.332 569.474L272.959 571.58C273.542 569.661 274.779 568.445 276.667 567.932C277.278 567.766 277.763 567.719 278.123 567.791L278.915 570.709ZM282.4 576.429C281.635 573.613 281.688 571.17 282.558 569.1C283.426 567.018 284.939 565.684 287.099 565.097C289.248 564.513 291.15 564.786 292.804 565.915L290.205 556.348L293.343 555.495L300.423 581.551L297.539 582.334L296.852 580.408C296.014 582.287 294.476 583.531 292.237 584.139C290.111 584.717 288.138 584.317 286.319 582.942C284.512 581.563 283.227 579.471 282.465 576.666L282.4 576.429ZM285.635 575.932C286.201 578.013 287.073 579.525 288.252 580.467C289.431 581.41 290.778 581.675 292.293 581.264C294.284 580.723 295.494 579.435 295.925 577.399L293.634 568.968C292.225 567.493 290.548 567.02 288.603 567.548C287.065 567.966 286.028 568.886 285.491 570.307C284.954 571.727 285.002 573.603 285.635 575.932ZM310.554 568.761C310.066 566.963 309.977 565.25 310.288 563.624C310.61 561.994 311.293 560.618 312.336 559.497C313.391 558.373 314.727 557.591 316.344 557.151C318.843 556.472 321.097 556.789 323.105 558.101C325.124 559.41 326.524 561.501 327.305 564.374L327.365 564.594C327.85 566.381 327.941 568.081 327.639 569.693C327.344 571.291 326.666 572.659 325.603 573.798C324.551 574.934 323.2 575.726 321.549 576.175C319.061 576.851 316.807 576.534 314.788 575.225C312.78 573.912 311.389 571.831 310.614 568.981L310.554 568.761ZM313.811 568.277C314.364 570.312 315.277 571.819 316.551 572.797C317.836 573.771 319.27 574.043 320.853 573.613C322.448 573.18 323.545 572.214 324.146 570.715C324.743 569.205 324.736 567.324 324.125 565.074C323.578 563.061 322.655 561.563 321.356 560.58C320.065 559.583 318.628 559.299 317.044 559.73C315.495 560.151 314.413 561.106 313.798 562.597C313.183 564.088 313.187 565.981 313.811 568.277ZM331.72 553.338L332.448 555.617C333.371 553.472 334.964 552.092 337.225 551.478C341.104 550.424 343.655 552.08 344.878 556.448L348.174 568.576L345.036 569.429L341.736 557.283C341.365 555.963 340.794 555.068 340.022 554.598C339.262 554.124 338.254 554.058 336.999 554.399C335.981 554.675 335.162 555.19 334.54 555.941C333.919 556.693 333.513 557.568 333.323 558.567L336.876 571.646L333.738 572.499L328.751 554.144L331.72 553.338ZM360.615 565.56C358.127 566.236 355.882 565.972 353.879 564.768C351.873 563.552 350.498 561.576 349.754 558.839L349.597 558.262C349.103 556.441 349.007 554.725 349.309 553.113C349.62 551.486 350.289 550.102 351.314 548.961C352.348 547.806 353.595 547.03 355.054 546.634C357.44 545.985 359.508 546.267 361.258 547.48C363.009 548.692 364.282 550.763 365.077 553.692L365.432 554.998L352.998 558.376C353.535 560.173 354.459 561.495 355.77 562.341C357.088 563.173 358.528 563.377 360.089 562.953C361.197 562.652 362.074 562.17 362.72 561.509C363.366 560.848 363.876 560.066 364.25 559.163L366.573 560.134C365.677 562.916 363.691 564.724 360.615 565.56ZM355.754 549.212C354.488 549.556 353.551 550.309 352.943 551.469C352.333 552.619 352.151 554.053 352.399 555.77L361.593 553.272L361.529 553.035C361.005 551.465 360.241 550.349 359.235 549.687C358.226 549.014 357.066 548.856 355.754 549.212ZM370.949 560.621C370.802 560.078 370.837 559.583 371.056 559.135C371.285 558.684 371.722 558.371 372.367 558.196C373.011 558.021 373.547 558.07 373.973 558.342C374.411 558.612 374.703 559.018 374.851 559.561C374.992 560.081 374.941 560.563 374.697 561.006C374.464 561.445 374.025 561.753 373.381 561.928C372.736 562.103 372.202 562.06 371.779 561.798C371.367 561.534 371.091 561.141 370.949 560.621Z" fill="#F8DC97"/>
<path d="M61.9291 323.163C62.9277 326.838 63.0421 329.74 62.2723 331.867C61.5025 333.995 59.7832 335.422 57.1143 336.147C54.4794 336.863 52.292 336.522 50.5523 335.125C48.8094 333.716 47.4437 331.282 46.4552 327.822L45.3168 323.632C44.3305 320.002 44.2253 317.135 45.0012 315.029C45.7772 312.924 47.5052 311.507 50.1854 310.779C52.843 310.057 55.0314 310.379 56.7506 311.746C58.4668 313.101 59.8242 315.55 60.823 319.091L61.9291 323.163ZM57.6249 319.724C56.9028 317.066 56.0042 315.234 54.929 314.226C53.8508 313.208 52.5031 312.918 50.886 313.358C49.2801 313.794 48.2741 314.717 47.8678 316.127C47.4615 317.537 47.5881 319.5 48.2476 322.016L49.6118 327.038C50.337 329.706 51.2576 331.575 52.3738 332.644C53.4983 333.699 54.8465 334.013 56.4184 333.585C57.9677 333.164 58.9527 332.253 59.3733 330.852C59.8053 329.447 59.688 327.451 59.0214 324.863L57.6249 319.724Z" fill="#F8DC97"/>
<rect x="688.096" y="266.349" width="372.831" height="503.947" rx="18.5" transform="rotate(10.2535 688.096 266.349)" fill="#2C2F40" stroke="#1D1F2C" stroke-width="3"/>
<path d="M719.269 432.636L725.343 399.056L735.676 400.925C738.628 401.459 741.144 402.605 743.223 404.363C745.321 406.108 746.801 408.328 747.663 411.025C748.528 413.706 748.678 416.607 748.113 419.728L747.834 421.274C747.269 424.395 746.121 427.053 744.39 429.249C742.675 431.447 740.527 433.004 737.948 433.919C735.369 434.834 732.61 435.033 729.671 434.518L719.269 432.636ZM731.249 405.912L727.193 428.329L730.538 428.934C733.244 429.424 735.472 428.914 737.221 427.404C738.971 425.895 740.159 423.498 740.785 420.213L741.106 418.437C741.724 415.024 741.484 412.313 740.386 410.304C739.291 408.28 737.383 407.022 734.662 406.529L731.249 405.912ZM772.825 427.295L759.541 424.892L757.914 433.886L773.504 436.707L772.499 442.265L749.989 438.193L756.064 404.613L778.527 408.677L777.513 414.281L761.969 411.469L760.521 419.472L773.805 421.875L772.825 427.295ZM804.943 436.582C804.028 440.148 802.175 442.75 799.386 444.389C796.612 446.031 793.257 446.496 789.321 445.784C785.016 445.005 781.887 442.947 779.934 439.608C778 436.257 777.49 432.053 778.405 426.994L778.776 424.942C779.361 421.713 780.444 418.971 782.027 416.717C783.61 414.463 785.572 412.873 787.915 411.947C790.276 411.008 792.856 410.792 795.654 411.298C799.529 411.999 802.462 413.602 804.455 416.106C806.447 418.61 807.288 421.771 806.979 425.589L800.06 424.338C800.283 422.139 799.959 420.461 799.089 419.303C798.237 418.133 796.75 417.356 794.628 416.972C792.322 416.555 790.442 417.072 788.988 418.524C787.553 419.963 786.505 422.418 785.846 425.887L785.387 428.424C784.731 432.053 784.797 434.804 785.585 436.677C786.389 438.553 787.975 439.705 790.343 440.134C792.48 440.52 794.159 440.324 795.38 439.544C796.619 438.752 797.5 437.348 798.024 435.33L804.943 436.582ZM830.299 437.691L817.014 435.288L815.387 444.283L830.978 447.103L829.972 452.661L807.463 448.59L813.537 415.01L836.001 419.073L834.987 424.677L819.442 421.865L817.995 429.868L831.279 432.271L830.299 437.691ZM843.091 442.816L840.95 454.647L834.031 453.396L840.106 419.816L853.206 422.185C855.727 422.641 857.858 423.503 859.598 424.771C861.353 426.041 862.591 427.622 863.312 429.515C864.037 431.393 864.203 433.416 863.81 435.584C863.215 438.874 861.615 441.268 859.01 442.766C856.423 444.251 853.139 444.633 849.156 443.913L843.091 442.816ZM844.104 437.211L850.285 438.329C852.115 438.66 853.584 438.482 854.693 437.793C855.818 437.107 856.525 435.965 856.814 434.366C857.112 432.721 856.868 431.303 856.083 430.113C855.298 428.923 854.055 428.158 852.353 427.819L846.011 426.672L844.104 437.211ZM894.859 435.508L884.573 433.647L879.512 461.623L872.593 460.371L877.654 432.395L867.506 430.56L868.52 424.955L895.873 429.903L894.859 435.508ZM901.122 465.532L894.203 464.28L900.278 430.7L907.197 431.952L901.122 465.532ZM938.04 455.656C937.442 458.962 936.334 461.755 934.714 464.034C933.095 466.314 931.072 467.932 928.644 468.891C926.231 469.851 923.618 470.077 920.804 469.568C918.021 469.065 915.659 467.947 913.718 466.214C911.776 464.482 910.43 462.269 909.678 459.577C908.93 456.869 908.84 453.899 909.408 450.668L909.709 449.007C910.307 445.702 911.424 442.903 913.062 440.611C914.717 438.306 916.75 436.681 919.16 435.735C921.588 434.777 924.201 434.551 926.999 435.058C929.798 435.564 932.158 436.689 934.081 438.435C936.023 440.167 937.357 442.401 938.085 445.137C938.831 447.86 938.906 450.867 938.311 454.157L938.04 455.656ZM931.304 452.866C931.941 449.345 931.795 446.556 930.865 444.498C929.935 442.44 928.302 441.2 925.965 440.777C923.643 440.357 921.688 440.94 920.099 442.527C918.512 444.097 917.396 446.627 916.749 450.114L916.453 451.752C915.833 455.18 915.982 457.954 916.901 460.074C917.819 462.193 919.463 463.467 921.83 463.895C924.152 464.315 926.1 463.73 927.673 462.141C929.25 460.537 930.361 457.991 931.008 454.504L931.304 452.866ZM967.475 477.534L960.556 476.283L951.084 451.752L947.087 473.846L940.168 472.595L946.243 439.015L953.162 440.266L962.649 464.848L966.654 442.707L973.55 443.954L967.475 477.534Z" fill="#F8DC97"/>
<path d="M739.39 575.591C736.69 574.257 734.796 572.879 733.708 571.455C732.633 570.022 732.254 568.429 732.571 566.677C732.93 564.693 734.016 563.199 735.83 562.193C737.657 561.178 739.839 560.899 742.376 561.358C744.105 561.671 745.584 562.284 746.813 563.197C748.052 564.112 748.935 565.224 749.46 566.534C749.997 567.846 750.139 569.199 749.887 570.595L746.548 569.991C746.824 568.469 746.555 567.188 745.743 566.147C744.933 565.096 743.646 564.41 741.881 564.091C740.244 563.795 738.898 563.927 737.844 564.486C736.804 565.037 736.168 565.952 735.936 567.232C735.751 568.258 736.026 569.207 736.761 570.078C737.51 570.94 738.875 571.854 740.856 572.82C742.849 573.787 744.368 574.735 745.415 575.663C746.476 576.581 747.203 577.564 747.597 578.612C748.002 579.662 748.089 580.827 747.858 582.107C747.489 584.148 746.397 585.642 744.582 586.588C742.77 587.522 740.532 587.748 737.868 587.267C736.138 586.954 734.583 586.333 733.203 585.404C731.825 584.464 730.831 583.344 730.22 582.043C729.622 580.743 729.455 579.362 729.72 577.897L733.058 578.501C732.783 580.023 733.124 581.329 734.082 582.42C735.054 583.5 736.479 584.211 738.359 584.551C740.112 584.868 741.52 584.753 742.583 584.207C743.647 583.661 744.29 582.772 744.513 581.538C744.736 580.304 744.476 579.274 743.732 578.449C742.99 577.612 741.543 576.66 739.39 575.591ZM767.84 587.776L774.025 574.122L777.225 574.7L768.391 592.431L765.796 591.961L763.813 576.955L756.819 590.337L754.224 589.868L752.179 570.17L755.361 570.745L756.511 585.423L763.405 572.2L765.982 572.667L767.84 587.776ZM788.664 596.098C788.546 595.695 788.515 595.011 788.571 594.045C786.803 595.321 784.888 595.772 782.824 595.399C780.979 595.065 779.556 594.272 778.556 593.019C777.57 591.757 777.221 590.324 777.511 588.721C777.864 586.773 778.875 585.395 780.545 584.59C782.229 583.775 784.414 583.611 787.101 584.097L790.215 584.66L790.48 583.19C790.683 582.071 790.509 581.123 789.959 580.344C789.411 579.555 788.486 579.042 787.183 578.806C786.041 578.6 785.032 578.715 784.155 579.152C783.278 579.588 782.765 580.216 782.617 581.035L779.4 580.453C779.569 579.519 780.06 578.679 780.874 577.933C781.702 577.177 782.726 576.648 783.948 576.345C785.181 576.044 786.478 576.017 787.839 576.263C789.996 576.653 791.587 577.501 792.613 578.806C793.642 580.1 794.008 581.696 793.712 583.596L792.154 592.21C791.843 593.928 791.815 595.334 792.069 596.428L792.019 596.705L788.664 596.098ZM783.794 592.698C784.798 592.88 785.796 592.792 786.789 592.436C787.783 592.08 788.556 591.523 789.11 590.766L789.805 586.926L787.297 586.472C783.376 585.763 781.208 586.556 780.793 588.851C780.611 589.854 780.804 590.698 781.37 591.384C781.937 592.071 782.745 592.508 783.794 592.698ZM813.843 591.203C813.328 594.051 812.261 596.228 810.643 597.734C809.025 599.239 807.103 599.791 804.878 599.388C802.606 598.977 800.949 597.933 799.907 596.256L798.277 605.268L795.077 604.689L799.764 578.778L802.687 579.306L802.467 581.41C804.062 580.031 806.019 579.552 808.337 579.971C810.585 580.378 812.208 581.547 813.204 583.477C814.212 585.41 814.443 587.888 813.896 590.909L813.843 591.203ZM810.709 590.261C811.091 588.15 810.942 586.403 810.264 585.018C809.586 583.633 808.462 582.798 806.894 582.515C804.957 582.164 803.348 582.76 802.069 584.303L800.451 593.246C801.1 595.126 802.41 596.244 804.382 596.601C805.915 596.878 807.241 596.493 808.36 595.445C809.492 594.387 810.275 592.659 810.709 590.261ZM836.612 604.771C836.494 604.369 836.463 603.684 836.519 602.718C834.752 603.994 832.836 604.446 830.772 604.072C828.927 603.738 827.504 602.945 826.504 601.692C825.518 600.43 825.17 598.998 825.46 597.395C825.812 595.446 826.824 594.069 828.494 593.264C830.177 592.449 832.363 592.284 835.049 592.77L838.163 593.333L838.429 591.863C838.631 590.745 838.457 589.796 837.908 589.018C837.36 588.228 836.434 587.715 835.131 587.48C833.989 587.273 832.98 587.388 832.103 587.825C831.226 588.262 830.714 588.89 830.566 589.708L827.348 589.126C827.517 588.192 828.009 587.352 828.823 586.606C829.65 585.851 830.675 585.322 831.896 585.019C833.13 584.718 834.427 584.691 835.788 584.937C837.944 585.327 839.535 586.174 840.562 587.479C841.59 588.773 841.956 590.37 841.66 592.269L840.102 600.883C839.791 602.601 839.763 604.007 840.018 605.102L839.968 605.378L836.612 604.771ZM831.743 601.372C832.746 601.553 833.744 601.466 834.738 601.11C835.731 600.753 836.505 600.197 837.058 599.439L837.753 595.599L835.245 595.146C831.324 594.436 829.156 595.229 828.741 597.524C828.56 598.527 828.752 599.372 829.319 600.058C829.885 600.744 830.693 601.182 831.743 601.372ZM850.739 587.999L850.417 590.37C852.173 588.83 854.204 588.268 856.51 588.685C860.465 589.401 862.057 591.993 861.284 596.462L859.047 608.83L855.847 608.251L858.087 595.866C858.32 594.514 858.189 593.461 857.694 592.704C857.211 591.95 856.33 591.457 855.05 591.226C854.012 591.038 853.051 591.15 852.167 591.562C851.283 591.973 850.54 592.589 849.939 593.409L847.527 606.746L844.327 606.167L847.712 587.451L850.739 587.999ZM870.844 606.123L877.74 592.883L881.165 593.502L869.733 613.746C868.005 616.649 865.873 617.871 863.336 617.412L862.74 617.25L861.587 616.809L862.056 614.215L862.908 614.441C863.992 614.637 864.874 614.57 865.553 614.24C866.243 613.912 866.89 613.202 867.493 612.108L868.546 610.334L865.217 590.618L868.711 591.25L870.844 606.123ZM905.611 617.253L889.11 614.268L889.526 611.967L899.996 603.858C901.552 602.627 902.655 601.6 903.304 600.776C903.967 599.943 904.387 599.037 904.564 598.057C904.802 596.742 904.599 595.592 903.956 594.606C903.312 593.62 902.328 593.008 901.002 592.768C899.41 592.48 898.088 592.711 897.035 593.461C895.996 594.202 895.331 595.38 895.039 596.994L891.839 596.416C892.258 594.098 893.341 592.358 895.087 591.198C896.845 590.039 898.975 589.686 901.477 590.138C903.818 590.562 905.557 591.514 906.695 592.994C907.834 594.462 908.22 596.217 907.85 598.258C907.402 600.737 905.288 603.404 901.509 606.257L893.439 612.354L906.084 614.641L905.611 617.253ZM699.319 622.618L702.257 606.375L699.299 605.84L699.747 603.367L702.704 603.902L703.052 601.982C703.415 599.975 704.231 598.521 705.502 597.62C706.773 596.718 708.388 596.445 710.349 596.8C711.087 596.933 711.801 597.164 712.492 597.491L711.85 600.054C711.327 599.852 710.759 599.696 710.148 599.586C709.11 599.398 708.254 599.559 707.578 600.068C706.904 600.565 706.466 601.379 706.261 602.509L705.904 604.481L709.9 605.204L709.453 607.677L705.457 606.954L702.519 623.197L699.319 622.618ZM721.973 610.353C721.503 610.184 720.986 610.049 720.421 609.947C718.322 609.567 716.736 610.203 715.664 611.855L713.261 625.14L710.061 624.561L713.446 605.845L716.56 606.408L716.22 608.58C717.572 607.098 719.211 606.531 721.137 606.879C721.759 606.992 722.218 607.158 722.511 607.378L721.973 610.353ZM725.542 627.361L722.342 626.782L725.727 608.067L728.927 608.645L725.542 627.361ZM726.366 603.055C726.46 602.536 726.695 602.126 727.071 601.825C727.458 601.526 727.963 601.433 728.586 601.546C729.209 601.658 729.649 601.922 729.907 602.338C730.166 602.754 730.248 603.222 730.154 603.741C730.06 604.259 729.82 604.663 729.435 604.95C729.049 605.238 728.545 605.325 727.923 605.213C727.3 605.1 726.858 604.841 726.598 604.437C726.349 604.035 726.272 603.574 726.366 603.055ZM738.383 630.041C735.846 629.582 733.932 628.379 732.641 626.43C731.352 624.47 730.96 622.095 731.465 619.304L731.571 618.716C731.907 616.86 732.558 615.269 733.524 613.943C734.504 612.608 735.703 611.645 737.119 611.056C738.549 610.457 740.008 610.293 741.496 610.562C743.929 611.002 745.675 612.145 746.734 613.992C747.794 615.839 748.053 618.256 747.513 621.243L747.272 622.575L734.593 620.281C734.305 622.135 734.571 623.725 735.391 625.052C736.225 626.37 737.437 627.173 739.028 627.461C740.159 627.665 741.157 627.608 742.025 627.288C742.893 626.969 743.689 626.482 744.415 625.827L746.094 627.703C744.09 629.829 741.52 630.609 738.383 630.041ZM741.02 613.191C739.729 612.957 738.559 613.234 737.512 614.021C736.466 614.797 735.687 616.013 735.172 617.671L744.548 619.367L744.591 619.124C744.793 617.482 744.582 616.146 743.959 615.116C743.337 614.075 742.358 613.433 741.02 613.191ZM755.877 613.52L755.555 615.892C757.31 614.351 759.341 613.79 761.647 614.207C765.603 614.922 767.194 617.515 766.421 621.984L764.184 634.351L760.984 633.772L763.224 621.387C763.457 620.036 763.326 618.982 762.832 618.226C762.349 617.472 761.467 616.979 760.187 616.747C759.15 616.56 758.188 616.672 757.304 617.083C756.42 617.495 755.677 618.111 755.076 618.931L752.664 632.267L749.464 631.689L752.85 612.973L755.877 613.52ZM769.953 625.57C770.472 622.699 771.57 620.515 773.245 619.02C774.923 617.513 776.863 616.959 779.066 617.358C781.257 617.754 782.857 618.818 783.866 620.548L785.63 610.793L788.83 611.371L784.024 637.94L781.084 637.408L781.291 635.374C779.727 636.71 777.804 637.172 775.521 636.759C773.353 636.367 771.743 635.159 770.692 633.135C769.653 631.113 769.391 628.672 769.909 625.812L769.953 625.57ZM773.087 626.512C772.703 628.634 772.841 630.374 773.5 631.731C774.16 633.089 775.262 633.908 776.807 634.187C778.837 634.555 780.484 633.912 781.747 632.259L783.302 623.662C782.664 621.724 781.354 620.576 779.37 620.217C777.802 619.934 776.47 620.318 775.375 621.37C774.279 622.423 773.517 624.136 773.087 626.512ZM792.483 639.47L789.283 638.891L794.089 612.323L797.289 612.901L792.483 639.47ZM804.591 636.82L811.488 623.58L814.913 624.199L803.48 644.443C801.752 647.346 799.62 648.568 797.083 648.109L796.487 647.947L795.334 647.507L795.803 644.912L796.656 645.138C797.74 645.334 798.621 645.267 799.3 644.937C799.99 644.609 800.637 643.899 801.24 642.805L802.293 641.031L798.964 621.315L802.458 621.947L804.591 636.82ZM840.651 638.734C840.135 641.582 839.069 643.759 837.451 645.265C835.833 646.77 833.911 647.322 831.685 646.919C829.413 646.508 827.756 645.464 826.714 643.787L825.084 652.799L821.884 652.22L826.571 626.308L829.494 626.837L829.275 628.941C830.87 627.562 832.826 627.083 835.144 627.502C837.393 627.909 839.015 629.077 840.012 631.008C841.02 632.941 841.25 635.418 840.704 638.44L840.651 638.734ZM837.516 637.792C837.898 635.681 837.75 633.934 837.071 632.549C836.393 631.164 835.27 630.329 833.701 630.045C831.764 629.695 830.156 630.291 828.876 631.834L827.259 640.777C827.907 642.657 829.217 643.775 831.189 644.132C832.723 644.409 834.049 644.024 835.167 642.976C836.299 641.918 837.082 640.19 837.516 637.792ZM846.554 649.251L843.354 648.673L846.74 629.957L849.94 630.536L846.554 649.251ZM847.378 624.945C847.472 624.427 847.707 624.016 848.083 623.715C848.471 623.416 848.976 623.323 849.599 623.436C850.221 623.548 850.662 623.813 850.92 624.228C851.178 624.644 851.26 625.112 851.167 625.631C851.073 626.15 850.833 626.553 850.448 626.84C850.062 627.128 849.558 627.215 848.935 627.103C848.313 626.99 847.871 626.732 847.611 626.327C847.362 625.925 847.285 625.464 847.378 624.945ZM859.396 651.932C856.859 651.473 854.945 650.269 853.654 648.321C852.365 646.361 851.973 643.985 852.478 641.195L852.584 640.607C852.92 638.75 853.571 637.159 854.537 635.833C855.517 634.498 856.715 633.536 858.132 632.946C859.562 632.348 861.021 632.183 862.508 632.452C864.942 632.892 866.688 634.036 867.747 635.883C868.806 637.729 869.066 640.146 868.526 643.133L868.285 644.465L855.606 642.171C855.318 644.025 855.584 645.615 856.404 646.942C857.237 648.26 858.45 649.063 860.041 649.351C861.171 649.555 862.17 649.498 863.038 649.178C863.905 648.859 864.702 648.372 865.428 647.717L867.107 649.593C865.103 651.719 862.532 652.499 859.396 651.932ZM862.033 635.081C860.741 634.847 859.572 635.124 858.524 635.911C857.479 636.687 856.699 637.903 856.185 639.561L865.56 641.257L865.604 641.015C865.806 639.372 865.595 638.036 864.972 637.006C864.35 635.965 863.371 635.323 862.033 635.081ZM878.394 652.671C879.535 652.877 880.595 652.712 881.574 652.174C882.552 651.637 883.182 650.857 883.462 649.836L886.489 650.384C886.237 651.446 885.683 652.4 884.828 653.245C883.972 654.091 882.921 654.699 881.675 655.069C880.441 655.441 879.19 655.512 877.921 655.283C875.373 654.822 873.496 653.607 872.292 651.639C871.102 649.661 870.774 647.196 871.308 644.244L871.405 643.707C871.734 641.885 872.362 640.326 873.287 639.028C874.213 637.731 875.369 636.803 876.756 636.244C878.155 635.687 879.708 635.563 881.415 635.872C883.513 636.251 885.141 637.195 886.297 638.702C887.465 640.212 887.914 641.978 887.643 644.001L884.616 643.453C884.743 642.226 884.461 641.151 883.77 640.228C883.094 639.296 882.15 638.72 880.939 638.501C879.313 638.207 877.944 638.567 876.832 639.58C875.733 640.584 874.983 642.193 874.583 644.407L874.473 645.013C874.083 647.169 874.227 648.91 874.904 650.235C875.581 651.561 876.745 652.372 878.394 652.671ZM896.723 658.684C894.186 658.225 892.272 657.021 890.981 655.073C889.693 653.113 889.301 650.738 889.805 647.947L889.912 647.359C890.248 645.502 890.899 643.911 891.865 642.585C892.845 641.25 894.043 640.288 895.46 639.699C896.89 639.1 898.349 638.935 899.836 639.204C902.269 639.644 904.016 640.788 905.075 642.635C906.134 644.482 906.394 646.899 905.853 649.885L905.612 651.217L892.933 648.924C892.646 650.777 892.912 652.367 893.732 653.695C894.565 655.013 895.777 655.815 897.369 656.103C898.499 656.308 899.498 656.25 900.365 655.931C901.233 655.611 902.03 655.124 902.755 654.47L904.435 656.345C902.43 658.472 899.86 659.251 896.723 658.684ZM899.361 641.833C898.069 641.6 896.9 641.876 895.852 642.664C894.807 643.439 894.027 644.656 893.513 646.313L902.888 648.009L902.932 647.767C903.134 646.124 902.923 644.788 902.299 643.758C901.678 642.717 900.698 642.075 899.361 641.833ZM919.6 657.338C919.756 656.473 919.549 655.745 918.977 655.153C918.419 654.552 917.358 653.931 915.794 653.291C914.243 652.653 913.032 652.006 912.162 651.348C911.304 650.693 910.705 649.989 910.365 649.237C910.036 648.486 909.955 647.65 910.122 646.728C910.4 645.194 911.28 644.013 912.764 643.186C914.259 642.361 916.015 642.131 918.033 642.496C920.155 642.88 921.774 643.738 922.89 645.072C924.018 646.407 924.428 647.928 924.119 649.635L920.902 649.053C921.061 648.176 920.822 647.353 920.188 646.583C919.564 645.816 918.688 645.329 917.558 645.125C916.393 644.914 915.436 645.003 914.687 645.392C913.938 645.78 913.489 646.384 913.341 647.203C913.201 647.975 913.402 648.613 913.942 649.115C914.482 649.618 915.516 650.192 917.042 650.837C918.58 651.485 919.801 652.146 920.703 652.821C921.605 653.497 922.228 654.229 922.574 655.018C922.933 655.797 923.022 656.689 922.84 657.692C922.538 659.364 921.626 660.586 920.105 661.359C918.586 662.121 916.76 662.308 914.626 661.922C913.127 661.651 911.849 661.146 910.792 660.407C909.735 659.668 908.963 658.766 908.477 657.702C908.004 656.628 907.868 655.537 908.068 654.43L911.268 655.009C911.132 656.092 911.404 657.022 912.085 657.801C912.779 658.569 913.784 659.073 915.099 659.31C916.309 659.529 917.322 659.462 918.136 659.11C918.964 658.747 919.452 658.157 919.6 657.338Z" fill="#F8DC97"/>
<path d="M708.337 318.4L705.119 317.818L708.977 296.491L702.097 297.693L702.622 294.787L712.413 293.003L712.914 293.094L708.337 318.4ZM734.213 323.081L717.712 320.096L718.128 317.796L728.598 309.686C730.154 308.455 731.257 307.428 731.906 306.605C732.569 305.772 732.989 304.865 733.166 303.885C733.404 302.57 733.201 301.42 732.558 300.435C731.915 299.449 730.93 298.836 729.604 298.596C728.012 298.308 726.69 298.54 725.638 299.29C724.598 300.031 723.933 301.208 723.641 302.823L720.441 302.244C720.86 299.926 721.943 298.187 723.689 297.026C725.447 295.867 727.577 295.514 730.079 295.967C732.42 296.39 734.159 297.342 735.297 298.822C736.437 300.291 736.822 302.045 736.453 304.087C736.004 306.566 733.89 309.232 730.111 312.085L722.041 318.182L734.686 320.469L734.213 323.081Z" fill="#F8DC97"/>
<rect x="951.695" y="166.714" width="372.831" height="503.947" rx="18.5" transform="rotate(-8.53297 951.695 166.714)" fill="#2C2F40" stroke="#1D1F2C" stroke-width="3"/>
<path d="M1034.23 299.227L1020.88 301.23L1022.24 310.27L1037.91 307.919L1038.75 313.505L1016.12 316.899L1011.06 283.152L1033.64 279.765L1034.48 285.397L1018.86 287.741L1020.07 295.784L1033.42 293.78L1034.23 299.227ZM1051.58 288.969L1056.17 276.384L1064.16 275.185L1056.84 293.394L1069.48 308.894L1061.39 310.107L1053.13 299.26L1048.41 312.055L1040.32 313.268L1047.85 294.743L1035.51 279.483L1043.51 278.283L1051.58 288.969ZM1078.17 295.431L1079.96 307.322L1073 308.365L1067.94 274.618L1081.1 272.642C1083.64 272.262 1085.93 272.392 1087.99 273.032C1090.06 273.669 1091.74 274.767 1093.03 276.327C1094.32 277.872 1095.13 279.733 1095.46 281.912C1095.96 285.219 1095.21 288 1093.23 290.257C1091.26 292.496 1088.27 293.916 1084.27 294.517L1078.17 295.431ZM1077.33 289.799L1083.54 288.867C1085.38 288.591 1086.71 287.949 1087.54 286.94C1088.38 285.928 1088.68 284.619 1088.44 283.012C1088.2 281.359 1087.51 280.095 1086.38 279.221C1085.25 278.348 1083.83 278.024 1082.11 278.25L1075.74 279.207L1077.33 289.799ZM1121.75 286.096L1108.4 288.099L1109.76 297.138L1125.43 294.787L1126.27 300.373L1103.64 303.768L1098.58 270.02L1121.16 266.633L1122 272.265L1106.38 274.609L1107.59 282.652L1120.94 280.649L1121.75 286.096ZM1157.79 295.644L1150.83 296.687L1133.97 276.513L1137.3 298.718L1130.35 299.761L1125.28 266.014L1132.24 264.971L1149.13 285.187L1145.79 262.936L1152.72 261.897L1157.79 295.644ZM1163.86 294.733L1158.8 260.985L1169.18 259.427C1172.15 258.982 1174.9 259.257 1177.43 260.251C1179.98 261.228 1182.1 262.853 1183.78 265.129C1185.46 267.389 1186.54 270.087 1187.01 273.224L1187.24 274.776C1187.72 277.913 1187.48 280.8 1186.55 283.436C1185.64 286.07 1184.11 288.235 1181.96 289.932C1179.81 291.628 1177.26 292.706 1174.31 293.164L1163.86 294.733ZM1166.6 265.574L1169.98 288.103L1173.34 287.599C1176.06 287.191 1178 285.991 1179.17 283.998C1180.34 282.006 1180.7 279.354 1180.23 276.042L1179.96 274.258C1179.45 270.827 1178.35 268.338 1176.66 266.79C1174.97 265.226 1172.76 264.649 1170.03 265.06L1166.6 265.574ZM1212.23 280.365L1200.04 282.194L1198.77 289.495L1191.37 290.605L1198.87 254.973L1205.32 254.006L1223.01 285.858L1215.62 286.967L1212.23 280.365ZM1201.07 276.28L1209.51 275.014L1203.37 263.019L1201.07 276.28ZM1226.16 285.385L1221.1 251.638L1232.92 249.864C1237.02 249.25 1240.24 249.572 1242.59 250.83C1244.94 252.073 1246.35 254.209 1246.8 257.238C1247.05 258.891 1246.84 260.415 1246.18 261.809C1245.52 263.189 1244.48 264.285 1243.05 265.1C1244.85 265.273 1246.34 265.942 1247.52 267.107C1248.73 268.27 1249.47 269.801 1249.75 271.702C1250.24 274.947 1249.57 277.559 1247.75 279.538C1245.93 281.518 1243.11 282.811 1239.28 283.416L1226.16 285.385ZM1230.91 269.647L1232.28 278.756L1238.24 277.862C1239.87 277.616 1241.09 277.039 1241.89 276.129C1242.7 275.202 1243 274.051 1242.79 272.676C1242.33 269.585 1240.49 268.257 1237.29 268.69L1230.91 269.647ZM1230.17 264.733L1235.32 263.961C1238.82 263.373 1240.36 261.711 1239.95 258.976C1239.72 257.446 1239.11 256.417 1238.11 255.887C1237.13 255.339 1235.68 255.209 1233.77 255.496L1228.9 256.227L1230.17 264.733ZM1262.6 274.207L1277.36 271.992L1278.2 277.578L1256.48 280.836L1251.42 247.089L1258.37 246.046L1262.6 274.207ZM1300.32 259.304L1286.97 261.307L1288.32 270.347L1303.99 267.996L1304.83 273.582L1282.21 276.976L1277.14 243.229L1299.72 239.841L1300.57 245.474L1284.94 247.818L1286.15 255.86L1299.5 253.857L1300.32 259.304Z" fill="#F8DC97"/>
<path d="M1054.14 428.585C1051.15 428.192 1048.92 427.497 1047.43 426.5C1045.95 425.489 1045.08 424.103 1044.81 422.342C1044.51 420.348 1045.06 418.583 1046.45 417.047C1047.86 415.498 1049.83 414.532 1052.38 414.149C1054.12 413.888 1055.72 413.992 1057.18 414.461C1058.64 414.928 1059.84 415.697 1060.76 416.768C1061.69 417.837 1062.26 419.072 1062.47 420.475L1059.11 420.978C1058.88 419.448 1058.22 418.322 1057.11 417.599C1056.01 416.864 1054.57 416.63 1052.79 416.896C1051.15 417.143 1049.92 417.701 1049.1 418.57C1048.29 419.426 1047.99 420.497 1048.18 421.783C1048.33 422.815 1048.9 423.625 1049.88 424.213C1050.86 424.787 1052.45 425.213 1054.64 425.489C1056.83 425.764 1058.58 426.172 1059.87 426.713C1061.17 427.241 1062.17 427.937 1062.88 428.802C1063.6 429.666 1064.06 430.741 1064.25 432.027C1064.56 434.078 1064.01 435.844 1062.6 437.324C1061.18 438.792 1059.14 439.727 1056.46 440.129C1054.72 440.39 1053.05 440.303 1051.44 439.868C1049.84 439.422 1048.53 438.681 1047.54 437.646C1046.55 436.609 1045.95 435.354 1045.73 433.882L1049.08 433.379C1049.31 434.909 1050.06 436.036 1051.31 436.759C1052.58 437.47 1054.16 437.683 1056.05 437.4C1057.81 437.135 1059.11 436.574 1059.94 435.714C1060.77 434.855 1061.09 433.805 1060.91 432.565C1060.72 431.325 1060.14 430.434 1059.17 429.892C1058.2 429.339 1056.52 428.903 1054.14 428.585ZM1080.34 434.288C1079.31 435.948 1077.59 436.959 1075.16 437.322C1073.16 437.623 1071.54 437.273 1070.31 436.273C1069.09 435.259 1068.31 433.611 1067.95 431.33L1066.12 419.092L1069.33 418.609L1071.16 430.76C1071.58 433.611 1072.96 434.863 1075.28 434.515C1077.73 434.146 1079.23 432.986 1079.77 431.033L1077.71 417.352L1080.93 416.869L1083.75 435.678L1080.69 436.138L1080.34 434.288ZM1088.86 415.68L1089.26 417.753C1090.39 415.924 1092.13 414.833 1094.47 414.482C1097.1 414.087 1099.04 414.827 1100.3 416.701C1100.79 415.703 1101.49 414.851 1102.4 414.146C1103.33 413.438 1104.47 412.982 1105.84 412.776C1109.96 412.157 1112.39 414.027 1113.12 418.386L1115.01 430.989L1111.79 431.471L1109.93 419.06C1109.73 417.715 1109.27 416.759 1108.56 416.19C1107.84 415.61 1106.76 415.429 1105.31 415.646C1104.12 415.826 1103.18 416.334 1102.5 417.17C1101.82 417.995 1101.5 419.02 1101.56 420.245L1103.43 432.726L1100.2 433.211L1098.35 420.886C1097.94 418.151 1096.39 416.984 1093.72 417.386C1091.61 417.703 1090.3 418.817 1089.79 420.73L1091.85 434.463L1088.64 434.946L1085.81 416.137L1088.86 415.68ZM1120.08 410.996L1120.48 413.069C1121.61 411.239 1123.35 410.149 1125.69 409.798C1128.32 409.403 1130.26 410.143 1131.52 412.017C1132.01 411.019 1132.71 410.167 1133.62 409.461C1134.55 408.754 1135.69 408.297 1137.06 408.092C1141.19 407.473 1143.61 409.343 1144.34 413.701L1146.23 426.305L1143.01 426.787L1141.15 414.375C1140.95 413.031 1140.49 412.075 1139.78 411.506C1139.06 410.926 1137.98 410.745 1136.53 410.962C1135.34 411.141 1134.4 411.649 1133.72 412.486C1133.04 413.311 1132.72 414.336 1132.78 415.56L1134.65 428.042L1131.42 428.527L1129.57 416.202C1129.16 413.467 1127.61 412.3 1124.94 412.702C1122.83 413.018 1121.52 414.133 1121.01 416.046L1123.07 429.779L1119.86 430.261L1117.03 411.452L1120.08 410.996ZM1148.81 416.124C1148.53 414.281 1148.64 412.57 1149.14 410.99C1149.65 409.409 1150.48 408.122 1151.65 407.129C1152.83 406.135 1154.25 405.513 1155.9 405.265C1158.47 404.88 1160.67 405.457 1162.51 406.993C1164.36 408.528 1165.51 410.767 1165.95 413.711L1165.99 413.937C1166.26 415.768 1166.15 417.467 1165.67 419.033C1165.19 420.586 1164.36 421.866 1163.17 422.874C1161.99 423.88 1160.56 424.51 1158.87 424.764C1156.32 425.146 1154.11 424.57 1152.26 423.035C1150.42 421.499 1149.28 419.27 1148.84 416.35L1148.81 416.124ZM1152.1 416.021C1152.41 418.107 1153.14 419.71 1154.29 420.828C1155.46 421.946 1156.85 422.382 1158.47 422.139C1160.11 421.894 1161.31 421.062 1162.08 419.643C1162.85 418.212 1163.06 416.343 1162.71 414.037C1162.4 411.974 1161.66 410.379 1160.48 409.252C1159.32 408.112 1157.92 407.664 1156.3 407.907C1154.71 408.145 1153.53 408.969 1152.74 410.378C1151.96 411.788 1151.74 413.668 1152.1 416.021ZM1171.62 403.262L1172.08 405.611C1173.24 403.587 1174.99 402.402 1177.3 402.054C1181.28 401.458 1183.62 403.399 1184.33 407.879L1186.19 420.308L1182.98 420.791L1181.11 408.344C1180.89 406.99 1180.43 406.034 1179.72 405.478C1179.02 404.919 1178.03 404.736 1176.74 404.929C1175.7 405.086 1174.82 405.501 1174.12 406.176C1173.41 406.85 1172.91 407.673 1172.6 408.643L1174.61 422.045L1171.4 422.528L1168.58 403.719L1171.62 403.262ZM1211.49 416.513C1211.24 416.17 1210.99 415.532 1210.74 414.599C1209.47 416.377 1207.81 417.421 1205.73 417.732C1203.88 418.01 1202.27 417.717 1200.92 416.854C1199.58 415.976 1198.79 414.732 1198.55 413.121C1198.26 411.163 1198.77 409.533 1200.09 408.233C1201.42 406.919 1203.44 406.06 1206.14 405.655L1209.27 405.185L1209.05 403.708C1208.88 402.584 1208.41 401.742 1207.64 401.182C1206.87 400.611 1205.82 400.423 1204.51 400.62C1203.37 400.792 1202.45 401.226 1201.76 401.922C1201.07 402.618 1200.79 403.377 1200.91 404.2L1197.68 404.685C1197.54 403.746 1197.73 402.793 1198.26 401.825C1198.8 400.843 1199.6 400.012 1200.66 399.332C1201.73 398.65 1202.95 398.206 1204.32 398.001C1206.48 397.676 1208.26 397.966 1209.66 398.871C1211.05 399.764 1211.91 401.158 1212.24 403.051L1213.54 411.708C1213.8 413.435 1214.22 414.775 1214.82 415.729L1214.86 416.007L1211.49 416.513ZM1205.78 414.863C1206.79 414.712 1207.71 414.307 1208.53 413.65C1209.36 412.993 1209.91 412.217 1210.19 411.322L1209.61 407.463L1207.09 407.841C1203.15 408.432 1201.35 409.881 1201.7 412.187C1201.85 413.195 1202.31 413.933 1203.06 414.4C1203.82 414.867 1204.73 415.021 1205.78 414.863ZM1242.58 402.445C1243.01 405.308 1242.7 407.712 1241.65 409.659C1240.6 411.605 1238.96 412.746 1236.73 413.082C1234.44 413.424 1232.54 412.969 1231.01 411.717L1232.37 420.774L1229.15 421.257L1225.25 395.216L1228.18 394.775L1228.65 396.838C1229.72 395.019 1231.42 393.935 1233.75 393.585C1236.01 393.246 1237.92 393.83 1239.48 395.337C1241.06 396.843 1242.08 399.113 1242.53 402.15L1242.58 402.445ZM1239.31 402.563C1238.99 400.442 1238.29 398.835 1237.2 397.742C1236.11 396.65 1234.78 396.221 1233.2 396.458C1231.25 396.75 1229.92 397.832 1229.21 399.705L1230.56 408.693C1231.78 410.263 1233.38 410.9 1235.36 410.603C1236.9 410.372 1238.03 409.58 1238.75 408.227C1239.48 406.861 1239.67 404.973 1239.31 402.563ZM1259.67 409.283C1259.43 408.94 1259.18 408.302 1258.92 407.369C1257.66 409.147 1255.99 410.191 1253.92 410.502C1252.06 410.78 1250.46 410.488 1249.11 409.624C1247.77 408.746 1246.98 407.502 1246.74 405.891C1246.44 403.933 1246.96 402.303 1248.28 401.003C1249.61 399.689 1251.63 398.83 1254.33 398.425L1257.46 397.955L1257.24 396.478C1257.07 395.354 1256.6 394.512 1255.83 393.952C1255.05 393.381 1254.01 393.193 1252.7 393.39C1251.55 393.562 1250.64 393.996 1249.95 394.692C1249.26 395.388 1248.97 396.147 1249.1 396.97L1245.86 397.455C1245.72 396.516 1245.92 395.563 1246.45 394.595C1246.99 393.613 1247.79 392.782 1248.85 392.102C1249.92 391.42 1251.14 390.976 1252.5 390.771C1254.67 390.446 1256.45 390.736 1257.84 391.641C1259.23 392.534 1260.09 393.928 1260.43 395.821L1261.72 404.478C1261.98 406.205 1262.41 407.545 1263 408.499L1263.04 408.777L1259.67 409.283ZM1253.97 407.633C1254.98 407.482 1255.89 407.077 1256.72 406.42C1257.54 405.763 1258.1 404.987 1258.38 404.092L1257.8 400.233L1255.28 400.611C1251.34 401.202 1249.54 402.651 1249.89 404.957C1250.04 405.965 1250.49 406.703 1251.25 407.17C1252.01 407.637 1252.91 407.791 1253.97 407.633ZM1283.41 401.189L1284.87 386.27L1288.09 385.787L1285.43 405.418L1282.83 405.809L1276.12 392.241L1273.81 407.163L1271.2 407.554L1262.92 389.564L1266.12 389.084L1271.93 402.609L1274.2 387.871L1276.79 387.483L1283.41 401.189ZM1294.42 384.838L1294.88 387.186C1296.04 385.163 1297.78 383.977 1300.1 383.63C1304.08 383.033 1306.42 384.975 1307.12 389.455L1308.99 401.884L1305.77 402.366L1303.91 389.92C1303.69 388.566 1303.23 387.61 1302.52 387.053C1301.82 386.495 1300.82 386.312 1299.54 386.505C1298.49 386.661 1297.62 387.077 1296.92 387.751C1296.21 388.426 1295.71 389.248 1295.4 390.218L1297.41 403.621L1294.2 404.103L1291.37 385.294L1294.42 384.838ZM1096.31 476.264C1096.07 475.921 1095.82 475.283 1095.56 474.35C1094.3 476.128 1092.63 477.172 1090.56 477.483C1088.7 477.761 1087.1 477.468 1085.75 476.604C1084.41 475.727 1083.62 474.483 1083.38 472.872C1083.08 470.914 1083.6 469.284 1084.92 467.984C1086.25 466.67 1088.27 465.811 1090.97 465.406L1094.1 464.936L1093.87 463.459C1093.7 462.334 1093.23 461.493 1092.46 460.933C1091.69 460.362 1090.65 460.174 1089.34 460.371C1088.19 460.543 1087.27 460.977 1086.58 461.673C1085.89 462.369 1085.61 463.128 1085.74 463.951L1082.5 464.436C1082.36 463.497 1082.56 462.544 1083.09 461.576C1083.63 460.594 1084.43 459.763 1085.48 459.083C1086.56 458.401 1087.77 457.957 1089.14 457.752C1091.31 457.427 1093.09 457.717 1094.48 458.622C1095.87 459.515 1096.73 460.909 1097.06 462.802L1098.36 471.459C1098.62 473.186 1099.05 474.526 1099.64 475.48L1099.68 475.758L1096.31 476.264ZM1090.61 474.614C1091.61 474.463 1092.53 474.058 1093.36 473.401C1094.18 472.744 1094.74 471.968 1095.02 471.073L1094.44 467.213L1091.92 467.592C1087.98 468.183 1086.18 469.632 1086.52 471.938C1086.68 472.946 1087.13 473.684 1087.89 474.151C1088.65 474.618 1089.55 474.772 1090.61 474.614ZM1101.85 465.657C1101.41 462.772 1101.75 460.351 1102.85 458.396C1103.96 456.429 1105.62 455.28 1107.83 454.948C1110.03 454.618 1111.89 455.109 1113.4 456.423L1111.93 446.618L1115.15 446.136L1119.15 472.837L1116.2 473.28L1115.74 471.287C1114.69 473.056 1113.02 474.113 1110.72 474.457C1108.54 474.784 1106.63 474.159 1104.98 472.581C1103.35 471.002 1102.31 468.775 1101.88 465.901L1101.85 465.657ZM1105.12 465.54C1105.44 467.672 1106.13 469.275 1107.19 470.348C1108.25 471.421 1109.56 471.841 1111.11 471.608C1113.15 471.302 1114.5 470.163 1115.17 468.191L1113.87 459.552C1112.64 457.923 1111.03 457.258 1109.04 457.557C1107.46 457.794 1106.33 458.586 1105.63 459.935C1104.93 461.284 1104.76 463.153 1105.12 465.54ZM1124.66 452.779L1127.81 473.761C1128.35 477.376 1126.98 479.43 1123.7 479.922C1122.99 480.028 1122.32 480.022 1121.69 479.904L1121.3 477.331C1121.69 477.369 1122.18 477.342 1122.78 477.251C1123.5 477.144 1124.02 476.865 1124.33 476.415C1124.65 475.975 1124.74 475.275 1124.6 474.313L1121.44 453.261L1124.66 452.779ZM1120.36 448.322C1120.29 447.812 1120.38 447.354 1120.64 446.947C1120.9 446.528 1121.35 446.272 1121.96 446.18C1122.59 446.086 1123.09 446.194 1123.47 446.505C1123.85 446.816 1124.07 447.232 1124.15 447.753C1124.23 448.275 1124.13 448.733 1123.86 449.13C1123.59 449.526 1123.14 449.771 1122.51 449.865C1121.89 449.959 1121.39 449.856 1121.03 449.555C1120.66 449.254 1120.44 448.843 1120.36 448.322ZM1144.29 469.066C1144.05 468.722 1143.8 468.085 1143.54 467.152C1142.28 468.929 1140.61 469.973 1138.53 470.284C1136.68 470.563 1135.08 470.27 1133.73 469.406C1132.39 468.529 1131.6 467.284 1131.36 465.674C1131.06 463.715 1131.58 462.086 1132.9 460.785C1134.23 459.472 1136.24 458.612 1138.94 458.207L1142.07 457.738L1141.85 456.26C1141.68 455.136 1141.21 454.294 1140.44 453.734C1139.67 453.163 1138.63 452.975 1137.32 453.172C1136.17 453.344 1135.25 453.778 1134.56 454.474C1133.87 455.17 1133.59 455.929 1133.71 456.752L1130.48 457.237C1130.34 456.299 1130.53 455.345 1131.06 454.377C1131.6 453.395 1132.4 452.564 1133.46 451.884C1134.53 451.202 1135.75 450.758 1137.12 450.553C1139.29 450.228 1141.07 450.518 1142.46 451.423C1143.85 452.316 1144.71 453.71 1145.04 455.604L1146.34 464.261C1146.6 465.987 1147.03 467.328 1147.62 468.281L1147.66 468.56L1144.29 469.066ZM1138.58 467.415C1139.59 467.264 1140.51 466.86 1141.34 466.203C1142.16 465.545 1142.71 464.769 1142.99 463.874L1142.42 460.015L1139.89 460.393C1135.95 460.984 1134.16 462.433 1134.5 464.739C1134.65 465.747 1135.11 466.485 1135.87 466.952C1136.62 467.419 1137.53 467.573 1138.58 467.415ZM1159.24 464.493C1160.39 464.321 1161.34 463.823 1162.1 462.999C1162.85 462.175 1163.19 461.234 1163.13 460.177L1166.17 459.721C1166.28 460.807 1166.06 461.889 1165.52 462.965C1164.98 464.041 1164.18 464.955 1163.12 465.706C1162.08 466.456 1160.91 466.927 1159.64 467.118C1157.08 467.502 1154.91 466.956 1153.14 465.481C1151.37 463.992 1150.27 461.764 1149.82 458.797L1149.74 458.258C1149.47 456.427 1149.56 454.748 1150.02 453.222C1150.48 451.696 1151.27 450.444 1152.4 449.469C1153.55 448.491 1154.98 447.874 1156.69 447.616C1158.8 447.3 1160.65 447.669 1162.23 448.723C1163.82 449.776 1164.81 451.304 1165.21 453.306L1162.17 453.763C1161.89 452.56 1161.28 451.633 1160.33 450.982C1159.39 450.317 1158.31 450.076 1157.09 450.259C1155.46 450.504 1154.28 451.285 1153.55 452.603C1152.83 453.907 1152.64 455.672 1152.98 457.897L1153.07 458.505C1153.39 460.673 1154.09 462.274 1155.16 463.311C1156.22 464.348 1157.59 464.742 1159.24 464.493ZM1178.53 464.283C1175.98 464.665 1173.79 464.142 1171.94 462.713C1170.08 461.273 1168.95 459.15 1168.53 456.346L1168.44 455.755C1168.16 453.889 1168.26 452.173 1168.75 450.607C1169.25 449.027 1170.07 447.73 1171.22 446.716C1172.39 445.689 1173.71 445.063 1175.21 444.838C1177.65 444.472 1179.67 444.992 1181.27 446.399C1182.87 447.807 1183.89 450.011 1184.34 453.013L1184.55 454.351L1171.8 456.263C1172.13 458.11 1172.89 459.53 1174.1 460.523C1175.31 461.502 1176.72 461.872 1178.31 461.632C1179.45 461.461 1180.38 461.085 1181.1 460.504C1181.81 459.922 1182.41 459.204 1182.89 458.35L1185.08 459.585C1183.87 462.244 1181.69 463.81 1178.53 464.283ZM1175.6 447.481C1174.31 447.676 1173.29 448.314 1172.55 449.397C1171.81 450.467 1171.46 451.87 1171.51 453.605L1180.93 452.192L1180.9 451.948C1180.56 450.328 1179.93 449.131 1179.01 448.357C1178.08 447.571 1176.95 447.279 1175.6 447.481ZM1189.78 443.008L1190.23 445.357C1191.4 443.333 1193.14 442.148 1195.46 441.8C1199.44 441.203 1201.78 443.145 1202.48 447.625L1204.35 460.054L1201.13 460.537L1199.27 448.09C1199.05 446.736 1198.59 445.78 1197.88 445.224C1197.18 444.665 1196.18 444.482 1194.9 444.675C1193.85 444.832 1192.98 445.247 1192.27 445.922C1191.57 446.596 1191.07 447.418 1190.76 448.388L1192.77 461.791L1189.56 462.274L1186.73 443.465L1189.78 443.008ZM1210.06 435.308L1210.74 439.863L1214.25 439.336L1214.62 441.822L1211.11 442.349L1212.86 454.013C1212.98 454.766 1213.22 455.311 1213.59 455.646C1213.96 455.97 1214.52 456.075 1215.27 455.962C1215.64 455.907 1216.14 455.761 1216.77 455.524L1217.16 458.132C1216.35 458.491 1215.54 458.73 1214.74 458.85C1213.31 459.066 1212.16 458.793 1211.3 458.034C1210.44 457.274 1209.89 456.095 1209.65 454.495L1207.9 442.831L1204.47 443.345L1204.1 440.859L1207.52 440.345L1206.84 435.791L1210.06 435.308ZM1230.53 432.236L1231.22 436.79L1234.73 436.263L1235.1 438.749L1231.59 439.276L1233.34 450.94C1233.45 451.694 1233.7 452.238 1234.07 452.574C1234.43 452.898 1235 453.003 1235.75 452.89C1236.12 452.834 1236.62 452.688 1237.25 452.452L1237.64 455.059C1236.83 455.418 1236.02 455.657 1235.22 455.777C1233.79 455.993 1232.64 455.721 1231.78 454.961C1230.92 454.202 1230.37 453.022 1230.13 451.423L1228.38 439.759L1224.95 440.272L1224.58 437.787L1228 437.273L1227.32 432.718L1230.53 432.236ZM1238.69 445.108C1238.41 443.265 1238.52 441.554 1239.02 439.975C1239.53 438.393 1240.37 437.106 1241.53 436.114C1242.71 435.119 1244.13 434.498 1245.79 434.249C1248.35 433.865 1250.55 434.441 1252.39 435.978C1254.24 437.513 1255.39 439.752 1255.83 442.695L1255.87 442.921C1256.14 444.752 1256.04 446.451 1255.55 448.017C1255.07 449.57 1254.24 450.851 1253.05 451.858C1251.87 452.864 1250.44 453.494 1248.75 453.748C1246.2 454.131 1244 453.555 1242.14 452.02C1240.3 450.483 1239.16 448.254 1238.72 445.334L1238.69 445.108ZM1241.98 445.005C1242.29 447.091 1243.02 448.694 1244.17 449.813C1245.34 450.93 1246.73 451.367 1248.35 451.123C1249.99 450.878 1251.19 450.046 1251.96 448.627C1252.73 447.196 1252.94 445.328 1252.59 443.021C1252.28 440.959 1251.54 439.364 1250.37 438.237C1249.2 437.096 1247.8 436.648 1246.18 436.891C1244.59 437.13 1243.41 437.953 1242.62 439.363C1241.84 440.772 1241.62 442.653 1241.98 445.005ZM1281.72 448.445C1281.48 448.102 1281.23 447.464 1280.97 446.531C1279.71 448.308 1278.04 449.353 1275.97 449.664C1274.12 449.942 1272.51 449.649 1271.16 448.785C1269.82 447.908 1269.03 446.664 1268.79 445.053C1268.5 443.094 1269.01 441.465 1270.33 440.165C1271.66 438.851 1273.68 437.992 1276.38 437.586L1279.51 437.117L1279.29 435.639C1279.12 434.515 1278.65 433.673 1277.88 433.114C1277.1 432.542 1276.06 432.355 1274.75 432.551C1273.61 432.723 1272.69 433.158 1272 433.853C1271.31 434.549 1271.02 435.309 1271.15 436.132L1267.91 436.617C1267.77 435.678 1267.97 434.725 1268.5 433.756C1269.04 432.775 1269.84 431.944 1270.9 431.263C1271.97 430.581 1273.19 430.138 1274.56 429.932C1276.72 429.607 1278.5 429.897 1279.89 430.802C1281.28 431.696 1282.14 433.089 1282.48 434.983L1283.78 443.64C1284.03 445.367 1284.46 446.707 1285.05 447.661L1285.1 447.939L1281.72 448.445ZM1276.02 446.795C1277.03 446.643 1277.94 446.239 1278.77 445.582C1279.6 444.925 1280.15 444.149 1280.43 443.253L1279.85 439.394L1277.33 439.772C1273.39 440.364 1271.59 441.812 1271.94 444.119C1272.09 445.127 1272.54 445.864 1273.3 446.331C1274.06 446.798 1274.96 446.953 1276.02 446.795ZM1089.35 519.779L1086.9 503.456L1083.93 503.902L1083.55 501.416L1086.53 500.97L1086.24 499.04C1085.93 497.024 1086.24 495.384 1087.15 494.122C1088.06 492.859 1089.51 492.08 1091.48 491.784C1092.22 491.673 1092.97 491.661 1093.73 491.748L1093.95 494.382C1093.38 494.36 1092.8 494.394 1092.18 494.486C1091.14 494.643 1090.38 495.071 1089.91 495.77C1089.43 496.458 1089.27 497.37 1089.44 498.506L1089.74 500.487L1093.76 499.885L1094.13 502.371L1090.11 502.973L1092.56 519.296L1089.35 519.779ZM1106.85 500.872C1106.35 500.864 1105.81 500.902 1105.25 500.987C1103.14 501.304 1101.84 502.417 1101.36 504.326L1103.36 517.677L1100.14 518.159L1097.32 499.35L1100.45 498.881L1100.83 501.046C1101.63 499.207 1103 498.143 1104.94 497.852C1105.56 497.758 1106.05 497.768 1106.4 497.882L1106.85 500.872ZM1115.7 515.825L1112.49 516.307L1109.66 497.498L1112.88 497.016L1115.7 515.825ZM1108.65 492.548C1108.58 492.027 1108.67 491.563 1108.93 491.157C1109.2 490.749 1109.64 490.498 1110.27 490.404C1110.9 490.31 1111.4 490.419 1111.78 490.729C1112.15 491.04 1112.38 491.456 1112.46 491.977C1112.54 492.499 1112.44 492.958 1112.17 493.354C1111.9 493.75 1111.45 493.995 1110.82 494.089C1110.2 494.183 1109.7 494.081 1109.32 493.782C1108.95 493.481 1108.73 493.07 1108.65 492.548ZM1128.72 514.227C1126.17 514.609 1123.97 514.086 1122.12 512.657C1120.27 511.217 1119.14 509.094 1118.71 506.29L1118.63 505.699C1118.35 503.833 1118.45 502.117 1118.94 500.551C1119.44 498.971 1120.26 497.674 1121.41 496.66C1122.57 495.633 1123.9 495.007 1125.4 494.782C1127.84 494.416 1129.86 494.936 1131.46 496.343C1133.06 497.751 1134.08 499.955 1134.53 502.957L1134.73 504.295L1121.99 506.207C1122.32 508.054 1123.08 509.474 1124.28 510.467C1125.5 511.446 1126.9 511.816 1128.5 511.576C1129.64 511.405 1130.56 511.029 1131.28 510.447C1132 509.866 1132.6 509.148 1133.08 508.294L1135.27 509.529C1134.06 512.188 1131.87 513.754 1128.72 514.227ZM1125.79 497.425C1124.49 497.619 1123.48 498.258 1122.74 499.341C1122 500.411 1121.65 501.814 1121.7 503.549L1131.12 502.135L1131.08 501.892C1130.75 500.272 1130.12 499.075 1129.19 498.301C1128.27 497.515 1127.14 497.223 1125.79 497.425ZM1139.96 492.952L1140.42 495.301C1141.59 493.277 1143.33 492.092 1145.65 491.744C1149.62 491.147 1151.96 493.089 1152.67 497.569L1154.54 509.998L1151.32 510.481L1149.45 498.034C1149.24 496.68 1148.77 495.724 1148.06 495.167C1147.36 494.609 1146.37 494.426 1145.08 494.619C1144.04 494.776 1143.17 495.191 1142.46 495.866C1141.76 496.54 1141.25 497.362 1140.95 498.332L1142.96 511.735L1139.74 512.218L1136.92 493.409L1139.96 492.952ZM1157.17 499.827C1156.74 496.941 1157.07 494.521 1158.18 492.566C1159.28 490.599 1160.94 489.45 1163.15 489.117C1165.35 488.787 1167.21 489.279 1168.72 490.592L1167.25 480.788L1170.47 480.305L1174.48 507.006L1171.52 507.45L1171.06 505.457C1170.01 507.226 1168.34 508.283 1166.04 508.627C1163.87 508.954 1161.95 508.328 1160.31 506.751C1158.67 505.171 1157.64 502.944 1157.21 500.07L1157.17 499.827ZM1160.44 499.709C1160.76 501.842 1161.45 503.444 1162.51 504.518C1163.57 505.591 1164.88 506.011 1166.43 505.778C1168.47 505.472 1169.83 504.333 1170.49 502.361L1169.19 493.721C1167.97 492.092 1166.36 491.428 1164.36 491.727C1162.79 491.963 1161.65 492.756 1160.95 494.105C1160.25 495.454 1160.08 497.322 1160.44 499.709ZM1182.98 505.731L1179.76 506.214L1175.75 479.512L1178.97 479.03L1182.98 505.731ZM1193.59 499.322L1195.85 484.567L1199.29 484.05L1194.99 506.897C1194.29 510.202 1192.66 512.045 1190.11 512.428L1189.5 512.467L1188.26 512.421L1187.87 509.813L1188.75 509.753C1189.84 509.589 1190.65 509.242 1191.19 508.711C1191.74 508.179 1192.12 507.298 1192.34 506.068L1192.77 504.049L1183.27 486.455L1186.78 485.928L1193.59 499.322ZM1228.34 489.522C1228.77 492.384 1228.46 494.789 1227.41 496.735C1226.37 498.681 1224.73 499.822 1222.49 500.158C1220.21 500.501 1218.3 500.046 1216.77 498.794L1218.13 507.85L1214.92 508.333L1211.01 482.292L1213.95 481.852L1214.42 483.914C1215.48 482.095 1217.18 481.011 1219.51 480.662C1221.77 480.322 1223.68 480.906 1225.25 482.414C1226.82 483.919 1227.84 486.19 1228.3 489.226L1228.34 489.522ZM1225.07 489.639C1224.75 487.518 1224.05 485.912 1222.96 484.819C1221.87 483.726 1220.54 483.298 1218.96 483.534C1217.02 483.826 1215.69 484.909 1214.97 486.782L1216.32 495.769C1217.54 497.34 1219.14 497.977 1221.12 497.679C1222.66 497.448 1223.79 496.656 1224.52 495.304C1225.25 493.938 1225.43 492.05 1225.07 489.639ZM1237.32 497.578L1234.1 498.06L1231.28 479.251L1234.49 478.769L1237.32 497.578ZM1230.27 474.301C1230.19 473.78 1230.28 473.316 1230.54 472.91C1230.81 472.502 1231.26 472.251 1231.89 472.157C1232.51 472.063 1233.01 472.171 1233.39 472.482C1233.77 472.793 1234 473.209 1234.08 473.73C1234.15 474.252 1234.06 474.711 1233.79 475.107C1233.51 475.503 1233.06 475.748 1232.44 475.842C1231.81 475.936 1231.31 475.834 1230.93 475.535C1230.57 475.234 1230.35 474.823 1230.27 474.301ZM1250.34 495.98C1247.79 496.362 1245.59 495.839 1243.74 494.41C1241.89 492.97 1240.75 490.847 1240.33 488.043L1240.24 487.452C1239.96 485.586 1240.07 483.87 1240.55 482.303C1241.05 480.724 1241.88 479.427 1243.03 478.413C1244.19 477.386 1245.52 476.76 1247.01 476.535C1249.46 476.168 1251.48 476.689 1253.08 478.096C1254.67 479.504 1255.7 481.708 1256.15 484.71L1256.35 486.048L1243.61 487.96C1243.93 489.807 1244.69 491.227 1245.9 492.22C1247.11 493.199 1248.52 493.569 1250.12 493.329C1251.25 493.158 1252.18 492.782 1252.9 492.2C1253.62 491.619 1254.21 490.901 1254.69 490.047L1256.88 491.282C1255.67 493.941 1253.49 495.507 1250.34 495.98ZM1247.41 479.178C1246.11 479.372 1245.09 480.011 1244.35 481.093C1243.61 482.164 1243.27 483.567 1243.31 485.302L1252.74 483.888L1252.7 483.645C1252.36 482.025 1251.73 480.828 1250.81 480.054C1249.89 479.268 1248.75 478.976 1247.41 479.178ZM1268.56 490.561C1269.71 490.389 1270.66 489.891 1271.41 489.067C1272.17 488.243 1272.51 487.303 1272.45 486.246L1275.49 485.789C1275.59 486.876 1275.38 487.957 1274.84 489.033C1274.3 490.109 1273.5 491.023 1272.44 491.775C1271.39 492.524 1270.23 492.995 1268.95 493.186C1266.39 493.571 1264.23 493.025 1262.45 491.549C1260.69 490.06 1259.58 487.832 1259.14 484.865L1259.06 484.326C1258.78 482.495 1258.88 480.816 1259.33 479.29C1259.79 477.764 1260.59 476.513 1261.72 475.537C1262.87 474.559 1264.3 473.942 1266.01 473.685C1268.12 473.368 1269.97 473.737 1271.55 474.792C1273.14 475.845 1274.13 477.372 1274.53 479.375L1271.48 479.831C1271.21 478.628 1270.6 477.701 1269.64 477.05C1268.7 476.385 1267.62 476.144 1266.41 476.327C1264.77 476.572 1263.59 477.353 1262.87 478.671C1262.15 479.976 1261.96 481.74 1262.29 483.965L1262.38 484.574C1262.71 486.741 1263.41 488.343 1264.47 489.379C1265.54 490.416 1266.9 490.81 1268.56 490.561ZM1287.85 490.351C1285.3 490.734 1283.1 490.211 1281.25 488.782C1279.4 487.341 1278.26 485.219 1277.84 482.414L1277.75 481.823C1277.47 479.957 1277.58 478.241 1278.07 476.675C1278.56 475.095 1279.39 473.798 1280.54 472.784C1281.7 471.757 1283.03 471.131 1284.52 470.907C1286.97 470.54 1288.99 471.06 1290.59 472.468C1292.19 473.875 1293.21 476.08 1293.66 479.081L1293.86 480.42L1281.12 482.331C1281.44 484.179 1282.21 485.599 1283.41 486.591C1284.63 487.57 1286.03 487.94 1287.63 487.7C1288.77 487.53 1289.69 487.154 1290.41 486.572C1291.13 485.99 1291.73 485.272 1292.2 484.419L1294.4 485.654C1293.19 488.312 1291 489.878 1287.85 490.351ZM1284.92 473.549C1283.62 473.744 1282.6 474.382 1281.87 475.465C1281.13 476.536 1280.78 477.939 1280.83 479.674L1290.25 478.26L1290.21 478.017C1289.87 476.396 1289.24 475.199 1288.32 474.425C1287.4 473.639 1286.27 473.347 1284.92 473.549Z" fill="#F8DC97"/>
<path d="M999.348 199.022L1002.86 198.496L1003.25 201.121L999.742 201.647L1000.62 207.523L997.39 208.008L996.509 202.132L984.983 203.862L984.699 201.967L993.402 182.726L996.826 182.213L999.348 199.022ZM988.24 200.689L996.115 199.508L994.253 187.096L993.975 187.848L988.24 200.689Z" fill="#F8DC97"/>
</svg>
