<svg width="92" height="87" viewBox="0 0 92 87" fill="none" xmlns="http://www.w3.org/2000/svg">
<path d="M74.6709 5.73746C72.3781 6.0042 70.7371 8.07728 71.0039 10.37C71.1113 11.2934 71.5111 12.1091 72.1004 12.745C70.2125 14.1423 69.085 16.4711 69.3759 18.9714C69.6209 21.0774 70.8145 22.8417 72.4832 23.8988C69.4988 25.3606 65.4656 30.551 66.4215 38.7676L90.2828 35.9915C89.3269 27.775 84.2098 23.6491 80.9695 22.9115C82.3509 21.4995 83.1077 19.5083 82.8627 17.4023C82.5718 14.902 80.9397 12.8943 78.7815 11.9677C79.209 11.2135 79.4109 10.3278 79.3035 9.40445C79.0367 7.11169 76.9636 5.47071 74.6709 5.73746Z" fill="white" stroke="black" stroke-width="1.5" stroke-linecap="round"/>
<path fill-rule="evenodd" clip-rule="evenodd" d="M30.4439 38.6454C27.4532 36.785 20.5964 36.2958 18.0043 33.0324C14.0836 34.4456 7.99371 31.2569 4.4716 31.2671C4.4716 31.2671 2.74037 31.3382 1.03925 32.3712C1.42482 33.4915 2.35301 33.7696 3.78843 33.672C7.31054 33.6617 13.3929 36.8771 17.0479 36.3992C19.9057 38.7272 26.77 39.1898 29.7607 41.0502C30.9304 41.8879 31.8662 42.1394 32.7832 41.3891C32.012 39.1484 30.4439 38.6454 30.4439 38.6454Z" fill="white" stroke="black" stroke-width="1.5" stroke-linejoin="round"/>
<path fill-rule="evenodd" clip-rule="evenodd" d="M25.7652 33.1579C22.6772 34.8795 13.0578 32.1468 11.3362 29.0588C11.2651 27.4793 11.8827 27.1349 11.8827 27.1349L26.3118 31.234C26.3118 31.234 26.6561 31.8516 25.7652 33.1579Z" fill="white" stroke="black" stroke-width="1.5" stroke-linejoin="round"/>
<path d="M26.3119 31.2338L11.8828 27.1348" stroke="black" stroke-width="1.5"/>
<path fill-rule="evenodd" clip-rule="evenodd" d="M23.1374 7.07372C30.6593 10.0063 33.6128 16.4153 28.8522 31.7728L11.9176 26.9619C13.8001 20.3353 20.64 24.2677 22.2004 13.1732" fill="white"/>
<path d="M23.1374 7.07372C30.6593 10.0063 33.6128 16.4153 28.8522 31.7728L11.9176 26.9619C13.8001 20.3353 20.64 24.2677 22.2004 13.1732" stroke="black" stroke-width="1.14813" stroke-linecap="round"/>
<path fill-rule="evenodd" clip-rule="evenodd" d="M22.9367 13.3822C22.6108 15.6061 17.3069 17.6461 15.1639 18.3354C12.5367 19.1805 12.1798 20.9434 10.6458 20.2347C10.0763 19.3218 12.3218 18.2939 11.2733 18.0259C10.537 17.8167 11.1536 18.972 10.1187 19.2893C9.38239 19.0801 6.96203 19.1883 8.01019 15.5075C8.42852 14.0349 14.9379 7.927 14.9379 7.927C14.9379 7.927 16.7243 6.92095 17.1426 5.76833C16.816 4.88432 17.1928 4.19117 17.4019 3.45488C18.3474 2.92776 19.0879 5.9231 19.0879 5.9231L20.5605 6.34143C20.5605 6.34143 21.5527 5.03832 23.0287 4.65548C23.765 4.86465 23.1375 7.07351 23.1375 7.07351" fill="white"/>
<path d="M22.9367 13.3822C22.6108 15.6061 17.3069 17.6461 15.1639 18.3354C12.5367 19.1805 12.1798 20.9434 10.6458 20.2347C10.0763 19.3218 12.3218 18.2939 11.2733 18.0259C10.537 17.8167 11.1536 18.972 10.1187 19.2893C9.38239 19.0801 6.96203 19.1883 8.01019 15.5075C8.42852 14.0349 14.9379 7.927 14.9379 7.927C14.9379 7.927 16.7243 6.92095 17.1426 5.76833C16.816 4.88432 17.1928 4.19117 17.4019 3.45488C18.3474 2.92776 19.0879 5.9231 19.0879 5.9231L20.5605 6.34143C20.5605 6.34143 21.5527 5.03832 23.0287 4.65548C23.765 4.86465 23.1375 7.07351 23.1375 7.07351" stroke="black" stroke-width="1.14813" stroke-linecap="round" stroke-linejoin="round"/>
<path d="M10.6918 15.8717C10.664 15.9694 10.5986 16.052 10.51 16.1014C10.4213 16.1509 10.3167 16.163 10.219 16.1353C10.1214 16.1076 10.0388 16.0422 9.98935 15.9535C9.93992 15.8649 9.92774 15.7602 9.95548 15.6626C9.98321 15.5649 10.0486 15.4823 10.1373 15.4329C10.2259 15.3835 10.3306 15.3713 10.4282 15.399C10.5258 15.4268 10.6085 15.4921 10.6579 15.5808C10.7073 15.6694 10.7195 15.7741 10.6918 15.8717Z" fill="black" stroke="black" stroke-width="1.14813" stroke-linecap="round" stroke-linejoin="round"/>
<path d="M16.7316 9.82935C16.5131 10.0414 16.2754 10.2159 16.0709 10.3143C15.8664 10.4128 15.7118 10.4271 15.6411 10.3543C15.5704 10.2815 15.5895 10.1274 15.694 9.9259C15.7985 9.72444 15.98 9.49213 16.1985 9.28006C16.417 9.068 16.6547 8.89355 16.8592 8.7951C17.0637 8.69666 17.2183 8.68227 17.289 8.75511C17.3597 8.82795 17.3407 8.98205 17.2361 9.18351C17.1316 9.38497 16.9501 9.61728 16.7316 9.82935V9.82935Z" fill="black" stroke="black" stroke-width="1.14813" stroke-linecap="round" stroke-linejoin="round"/>
<path d="M28.1161 31.5636C33.0357 17.0469 29.8185 10.1652 25.2418 8.06933" stroke="black" stroke-width="0.765422" stroke-linecap="round"/>
<path fill-rule="evenodd" clip-rule="evenodd" d="M71.7991 56.2064C68.2995 56.6376 61.8788 54.2099 58.1523 56.0834C55.1812 53.1559 48.3253 53.4942 45.1273 52.009C45.1273 52.009 43.5813 51.219 42.4747 49.5669C43.2972 48.7144 44.2585 48.8455 45.516 49.5394C48.7139 51.0246 55.5746 50.6567 58.6964 52.6259C62.2721 51.7107 68.6881 54.168 72.1877 53.7368C73.5975 53.4626 74.5526 53.6331 75.0735 54.6971C73.5129 55.9294 71.7991 56.2064 71.7991 56.2064Z" fill="black" stroke="black" stroke-width="1.5" stroke-linejoin="round"/>
<path fill-rule="evenodd" clip-rule="evenodd" d="M65.2503 59.2246C63.1693 56.3663 53.2909 54.8117 50.4327 56.8927C49.7056 58.2967 50.1217 58.8684 50.1217 58.8684C49.7331 61.338 51.9695 63.2084 51.9695 63.2084C46.3032 63.8351 44.2547 73.6358 54.4991 79.2972C65.9872 77.0559 67.0479 67.0998 61.8479 64.763C61.8479 64.763 64.5507 63.6699 64.9394 61.2003C64.9394 61.2003 65.511 60.7841 65.2503 59.2246Z" fill="black" stroke="black" stroke-width="1.5" stroke-linejoin="round"/>
<path fill-rule="evenodd" clip-rule="evenodd" d="M51.6408 81.3786C51.7439 80.7236 52.103 80.1364 52.639 79.7461C53.175 79.3559 53.8441 79.1946 54.4991 79.2976C55.1541 79.4007 55.7413 79.7597 56.1315 80.2958C56.5218 80.8318 56.6831 81.5009 56.5801 82.1559C56.477 82.8109 56.1179 83.3981 55.5819 83.7883C55.0459 84.1786 54.3768 84.3399 53.7218 84.2368C53.0668 84.1338 52.4796 83.7747 52.0894 83.2387C51.6991 82.7027 51.5378 82.0336 51.6408 81.3786V81.3786Z" fill="black" stroke="black" stroke-width="1.5" stroke-linejoin="round"/>
<path d="M58.1345 72.2775L53.1953 71.5002M61.8478 64.7634L51.9693 63.2088L61.8478 64.7634ZM64.9392 61.2007L50.1216 58.8688L64.9392 61.2007ZM55.2762 74.3585L56.0535 69.4193L55.2762 74.3585Z" stroke="white" stroke-width="1.5" stroke-linecap="round"/>
</svg>
