<svg width="45" height="45" viewBox="0 0 45 45" fill="none" xmlns="http://www.w3.org/2000/svg">
<path d="M12.3963 6.41073C5.83068 6.65359 0.748924 14.7036 7.01326 30.0576C5.11847 21.2095 12.4823 4.79237 15.9117 30.9914C16.2113 30.5379 15.0743 34.2897 14.154 36.1273L22.5032 33.628L30.7975 36.1273C29.8564 34.2481 28.7586 30.4825 29.0947 30.9914C32.5242 4.79237 39.888 21.2095 37.9932 30.0576C47.5388 6.66093 30.6988 0.232758 22.5032 12.5353C19.686 8.30631 15.8354 6.28352 12.3963 6.41073Z" fill="black" stroke="black" stroke-width="1.31829" stroke-linecap="round" stroke-linejoin="round"/>
<path d="M8.4772 37.807C10.0154 37.807 11.2624 35.906 11.2624 33.561C11.2624 31.216 10.0154 29.315 8.4772 29.315C6.939 29.315 5.69205 31.216 5.69205 33.561C5.69205 35.906 6.939 37.807 8.4772 37.807Z" fill="black" stroke="black" stroke-width="1.31829" stroke-linecap="round" stroke-linejoin="round"/>
<path d="M36.5307 37.807C34.9925 37.807 33.7456 35.906 33.7456 33.561C33.7456 31.216 34.9925 29.315 36.5307 29.315C38.0689 29.315 39.3159 31.216 39.3159 33.561C39.3159 35.906 38.0689 37.807 36.5307 37.807Z" fill="black" stroke="black" stroke-width="1.31829" stroke-linecap="round" stroke-linejoin="round"/>
<path d="M22.5032 38.8845C27.1051 38.8845 30.8357 37.7115 30.8357 36.2646C30.8357 34.8177 27.1051 33.6447 22.5032 33.6447C17.9013 33.6447 14.1707 34.8177 14.1707 36.2646C14.1707 37.7115 17.9013 38.8845 22.5032 38.8845Z" fill="black" stroke="black" stroke-width="1.31829" stroke-linecap="round" stroke-linejoin="round"/>
<path d="M15.9117 30.9914C18.6204 26.475 21.1472 22.9495 22.5032 12.5353" stroke="white" stroke-width="1.31829" stroke-linecap="round" stroke-linejoin="round"/>
<path d="M29.0947 30.9914C26.3861 26.475 23.8592 22.9495 22.5032 12.5353" stroke="white" stroke-width="1.31829" stroke-linecap="round" stroke-linejoin="round"/>
<path d="M15.9117 30.9914C20.3061 29.2337 24.7004 29.2474 29.0947 30.9914" stroke="white" stroke-width="1.31829" stroke-linecap="round" stroke-linejoin="round"/>
</svg>
