<svg width="45" height="45" viewBox="0 0 45 45" fill="none" xmlns="http://www.w3.org/2000/svg">
<path fill-rule="evenodd" clip-rule="evenodd" d="M36 36C32.6147 35.0277 25.8853 36.4308 22.5 34C19.1147 36.4308 12.3853 35.0277 9 36C9 36 7.3541 36.5415 6 38C6.67705 38.9723 7.6459 38.9862 9 38.5C12.3853 37.5277 19.1147 38.9585 22.5 37.5C25.8853 38.9585 32.6147 37.5277 36 38.5C37.3541 38.9862 38.3229 38.9723 39 38C37.6459 36.0553 36 36 36 36Z" fill="black" stroke="black" stroke-width="1.5" stroke-linejoin="round"/>
<path fill-rule="evenodd" clip-rule="evenodd" d="M30.0001 32C27.5001 34.5 17.5001 34.5 15.0001 32C14.5001 30.5 15.0001 30 15.0001 30H30.0001C30.0001 30 30.5001 30.5 30.0001 32Z" fill="black" stroke="black" stroke-width="1.5" stroke-linejoin="round"/>
<path d="M30 30H15" stroke="black" stroke-width="1.5"/>
<path fill-rule="evenodd" clip-rule="evenodd" d="M20.3441 7.62697C28.381 8.39239 32.9736 13.7503 32.5909 29.8242H14.9862C14.9862 22.9354 22.6404 24.849 21.1095 13.7503" fill="white"/>
<path d="M20.3441 7.62697C28.381 8.39239 32.9736 13.7503 32.5909 29.8242H14.9862C14.9862 22.9354 22.6404 24.849 21.1095 13.7503" stroke="black" stroke-width="1.14813" stroke-linecap="round"/>
<path fill-rule="evenodd" clip-rule="evenodd" d="M21.875 13.7503C22.1693 15.9787 17.6247 19.3904 15.7517 20.6391C13.4554 22.1699 13.5938 23.9633 11.9245 23.7008C11.1272 22.9782 13.0064 21.3758 11.9245 21.4045C11.1591 21.4045 12.0679 22.3473 11.1591 22.9354C10.3937 22.9354 8.09501 23.7008 8.09743 19.8737C8.09743 18.3428 12.69 10.6886 12.69 10.6886C12.69 10.6886 14.1334 9.23268 14.2208 8.00963C13.6651 7.24852 13.8381 6.47879 13.8381 5.71337C14.6035 4.94794 16.1344 7.62692 16.1344 7.62692H17.6652C17.6652 7.62692 18.2636 6.10226 19.5788 5.33066C20.3442 5.33066 20.3442 7.62692 20.3442 7.62692" fill="white"/>
<path d="M21.875 13.7503C22.1693 15.9787 17.6247 19.3904 15.7517 20.6391C13.4554 22.1699 13.5938 23.9633 11.9245 23.7008C11.1272 22.9782 13.0064 21.3758 11.9245 21.4045C11.1591 21.4045 12.0679 22.3473 11.1591 22.9354C10.3937 22.9354 8.09501 23.7008 8.09743 19.8737C8.09743 18.3428 12.69 10.6886 12.69 10.6886C12.69 10.6886 14.1334 9.23268 14.2208 8.00963C13.6651 7.24852 13.8381 6.47879 13.8381 5.71337C14.6035 4.94794 16.1344 7.62692 16.1344 7.62692H17.6652C17.6652 7.62692 18.2636 6.10226 19.5788 5.33066C20.3442 5.33066 20.3442 7.62692 20.3442 7.62692" stroke="black" stroke-width="1.14813" stroke-linecap="round" stroke-linejoin="round"/>
<path d="M10.7764 19.4911C10.7764 19.5926 10.7361 19.69 10.6643 19.7617C10.5925 19.8335 10.4952 19.8738 10.3937 19.8738C10.2922 19.8738 10.1949 19.8335 10.1231 19.7617C10.0513 19.69 10.011 19.5926 10.011 19.4911C10.011 19.3896 10.0513 19.2923 10.1231 19.2205C10.1949 19.1487 10.2922 19.1084 10.3937 19.1084C10.4952 19.1084 10.5925 19.1487 10.6643 19.2205C10.7361 19.2923 10.7764 19.3896 10.7764 19.4911Z" fill="black" stroke="black" stroke-width="1.14813" stroke-linecap="round" stroke-linejoin="round"/>
<path d="M14.935 12.0279C14.7827 12.2916 14.6018 12.5244 14.432 12.6749C14.2622 12.8255 14.1174 12.8816 14.0295 12.8309C13.9416 12.7801 13.9178 12.6267 13.9633 12.4043C14.0088 12.182 14.1199 11.9089 14.2721 11.6452C14.4244 11.3815 14.6053 11.1487 14.7751 10.9982C14.9449 10.8476 15.0897 10.7915 15.1776 10.8422C15.2655 10.893 15.2894 11.0464 15.2439 11.2688C15.1983 11.4911 15.0873 11.7642 14.935 12.0279V12.0279Z" fill="black" stroke="black" stroke-width="1.14813" stroke-linecap="round" stroke-linejoin="round"/>
<path d="M31.8255 29.8242C32.5909 14.5158 27.6157 8.7751 22.6404 8.00968" stroke="black" stroke-width="0.765422" stroke-linecap="round"/>
<path fill-rule="evenodd" clip-rule="evenodd" d="M9 35.9414C12.39 34.9714 19.11 36.3714 22.5 33.9414C25.89 36.3714 32.61 34.9714 36 35.9414C36 35.9414 37.65 36.4814 39 37.9414C38.32 38.9114 37.35 38.9314 36 38.4414C32.61 37.4714 25.89 38.9014 22.5 37.4414C19.11 38.9014 12.39 37.4714 9 38.4414C7.65 38.9314 6.68 38.9114 6 37.9414C7.35 36.4814 9 35.9414 9 35.9414Z" fill="black" stroke="black" stroke-width="1.5" stroke-linejoin="round"/>
<path fill-rule="evenodd" clip-rule="evenodd" d="M30 29.9414C30 29.9414 30.5 30.4414 30 31.9414C27.5 34.4414 17.5 34.4414 15 31.9414C14.5 30.4414 15 29.9414 15 29.9414C15 29.329 15.1501 28.7765 15.3766 28.2915H29.6234C29.85 28.7765 30 29.329 30 29.9414Z" fill="black"/>
<path fill-rule="evenodd" clip-rule="evenodd" d="M20.342 7.41602C28.3802 8.18156 32.9735 13.5404 32.5907 29.6169H14.9832C14.9832 22.727 22.6386 24.6408 21.1075 13.5404" fill="black"/>
<path d="M20.342 7.41602C28.3802 8.18156 32.9735 13.5404 32.5907 29.6169H14.9832C14.9832 22.727 22.6386 24.6408 21.1075 13.5404" stroke="black" stroke-width="1.5" stroke-linecap="round" stroke-linejoin="round"/>
<path fill-rule="evenodd" clip-rule="evenodd" d="M21.8729 13.5406C22.1638 15.7684 17.6241 19.1827 15.7485 20.4306C13.4518 21.9617 13.5896 23.753 11.9208 23.4928C11.1231 22.7731 13.0002 21.1655 11.9208 21.1961C11.1552 21.1961 12.0662 22.1377 11.1552 22.7272C10.3897 22.7272 8.09072 23.4928 8.09302 19.665C8.09302 18.1339 12.6863 10.4785 12.6863 10.4785C12.6863 10.4785 14.1332 9.02392 14.2174 7.79904C13.6585 7.03809 13.8346 6.26795 13.8346 5.5024C14.6002 4.73686 16.1313 7.41627 16.1313 7.41627H17.6624C17.6624 7.41627 18.2595 5.8913 19.5762 5.11963C20.3418 5.11963 20.3418 7.41627 20.3418 7.41627" fill="black"/>
<path d="M21.8729 13.5406C22.1638 15.7684 17.6241 19.1827 15.7485 20.4306C13.4518 21.9617 13.5896 23.753 11.9208 23.4928C11.1231 22.7731 13.0002 21.1655 11.9208 21.1961C11.1552 21.1961 12.0662 22.1377 11.1552 22.7272C10.3897 22.7272 8.09072 23.4928 8.09302 19.665C8.09302 18.1339 12.6863 10.4785 12.6863 10.4785C12.6863 10.4785 14.1332 9.02392 14.2174 7.79904C13.6585 7.03809 13.8346 6.26795 13.8346 5.5024C14.6002 4.73686 16.1313 7.41627 16.1313 7.41627H17.6624C17.6624 7.41627 18.2595 5.8913 19.5762 5.11963C20.3418 5.11963 20.3418 7.41627 20.3418 7.41627" stroke="black" stroke-width="1.5" stroke-linecap="round" stroke-linejoin="round"/>
<path fill-rule="evenodd" clip-rule="evenodd" d="M10.7724 19.2822C10.7724 19.3837 10.7321 19.4811 10.6603 19.5528C10.5885 19.6246 10.4911 19.665 10.3896 19.665C10.2881 19.665 10.1907 19.6246 10.1189 19.5528C10.0472 19.4811 10.0068 19.3837 10.0068 19.2822C10.0068 19.1807 10.0472 19.0833 10.1189 19.0115C10.1907 18.9397 10.2881 18.8994 10.3896 18.8994C10.4911 18.8994 10.5885 18.9397 10.6603 19.0115C10.7321 19.0833 10.7724 19.1807 10.7724 19.2822Z" fill="white" stroke="white" stroke-width="1.5" stroke-linecap="round" stroke-linejoin="round"/>
<path fill-rule="evenodd" clip-rule="evenodd" d="M14.9316 11.8186C14.7793 12.0824 14.5983 12.3151 14.4285 12.4657C14.2587 12.6164 14.1138 12.6724 14.0259 12.6217C13.938 12.5709 13.9142 12.4175 13.9597 12.1951C14.0052 11.9727 14.1163 11.6996 14.2686 11.4359C14.4209 11.1721 14.6019 10.9393 14.7717 10.7887C14.9415 10.6381 15.0863 10.582 15.1743 10.6328C15.2622 10.6836 15.286 10.837 15.2405 11.0594C15.195 11.2818 15.0839 11.5549 14.9316 11.8186V11.8186Z" fill="white" stroke="white" stroke-width="1.5" stroke-linecap="round" stroke-linejoin="round"/>
<path fill-rule="evenodd" clip-rule="evenodd" d="M21.9497 8.8327L22.2942 7.72266L22.6846 7.79921C25.2875 8.1973 27.9057 9.84322 29.72 13.2805C31.333 16.3364 32.347 20.7838 32.2832 27.1447H30.5717C30.6827 20.9765 29.9078 17.0069 28.3803 14.115C26.6578 10.8537 24.744 9.71308 22.3325 8.94753L21.9497 8.8327Z" fill="white"/>
<path d="M15 29.9414H30" stroke="white" stroke-width="1.5"/>
</svg>
