<svg width="45" height="45" viewBox="0 0 45 45" fill="none" xmlns="http://www.w3.org/2000/svg">
<path d="M16 21.0002C16 18.5902 17.33 16.5002 19.28 15.3802L22.5 12.1602L25.72 15.3802C27.67 16.5002 29 18.5902 29 21.0002C29 23.0302 28.06 24.8402 26.59 26.0302C29.59 27.0902 34 31.5802 34 39.5002H11C11 31.5802 15.41 27.0902 18.41 26.0302C16.94 24.8402 16 23.0302 16 21.0002Z" fill="black"/>
<path d="M18.41 26.0302C16.94 24.8402 16 23.0302 16 21.0002C16 18.5902 17.33 16.5002 19.28 15.3802L22.5 12.1602L25.72 15.3802C27.67 16.5002 29 18.5902 29 21.0002C29 23.0302 28.06 24.8402 26.59 26.0302M18.41 26.0302C15.41 27.0902 11 31.5802 11 39.5002H34C34 31.5802 29.59 27.0902 26.59 26.0302M18.41 26.0302L22.5 30.1202L26.59 26.0302" stroke="black" stroke-width="1.5" stroke-linecap="round"/>
<mask id="mask0_604_4" style="mask-type:alpha" maskUnits="userSpaceOnUse" x="10" y="25" width="25" height="16">
<path d="M11 39.5003C11 31.5803 15.41 27.0903 18.41 26.0303L22.5 30.1203L26.59 26.0303C29.59 27.0903 34 31.5803 34 39.5003H11Z" fill="black" stroke="black" stroke-width="1.5" stroke-linecap="round"/>
</mask>
<g mask="url(#mask0_604_4)">
<path d="M16 21.75H15.25V22.5C15.25 24.7531 16.2877 26.7619 17.9067 28.0874L21.9697 32.1503L22.5 32.6807L23.0303 32.1503L27.0932 28.0874C28.7123 26.7619 29.75 24.7531 29.75 22.5V21.75H29H16Z" stroke="white" stroke-width="1.5"/>
</g>
</svg>
